<svg width="20" height="24" viewBox="0 0 20 24" fill="none" xmlns="http://www.w3.org/2000/svg">
<path d="M14.954 10.663C15.6096 9.60386 15.9702 8.38865 15.9982 7.1433C16.0263 5.89795 15.7208 4.66775 15.1135 3.58014C14.5062 2.49254 13.6192 1.5871 12.5443 0.957619C11.4693 0.328139 10.2457 -0.00247986 9 1.40046e-05H2C1.46957 1.40046e-05 0.960859 0.210728 0.585786 0.5858C0.210714 0.960873 0 1.46958 0 2.00001V22C0 22.5304 0.210714 23.0392 0.585786 23.4142C0.960859 23.7893 1.46957 24 2 24H12C13.5934 24.0017 15.1397 23.4592 16.3828 22.4624C17.6259 21.4656 18.4914 20.0742 18.8359 18.5185C19.1805 16.9627 18.9835 15.336 18.2776 13.9075C17.5717 12.479 16.3991 11.3343 14.954 10.663ZM4 4.00001H9C9.79565 4.00001 10.5587 4.31608 11.1213 4.87869C11.6839 5.4413 12 6.20436 12 7.00001C12 7.79566 11.6839 8.55873 11.1213 9.12134C10.5587 9.68394 9.79565 10 9 10H4V4.00001ZM12 20H4V14H12C12.7956 14 13.5587 14.3161 14.1213 14.8787C14.6839 15.4413 15 16.2044 15 17C15 17.7957 14.6839 18.5587 14.1213 19.1213C13.5587 19.6839 12.7956 20 12 20Z" fill="#374957"/>
</svg>
