<svg width="6" height="9" viewBox="0 0 6 9" fill="none" xmlns="http://www.w3.org/2000/svg">
<path d="M1.43952 8.6168C1.24658 8.60205 1.06709 8.51231 0.939518 8.3668C0.816529 8.2293 0.748535 8.05129 0.748535 7.8668C0.748535 7.68232 0.816529 7.50431 0.939518 7.3668L3.93952 4.3668L0.939518 1.3668C0.872677 1.22685 0.850869 1.06962 0.877096 0.916754C0.903323 0.763891 0.976295 0.622919 1.08596 0.513249C1.19563 0.40358 1.33661 0.330608 1.48947 0.304381C1.64233 0.278154 1.79956 0.299962 1.93952 0.366803L5.43952 3.8668C5.57997 4.00743 5.65886 4.19805 5.65886 4.3968C5.65886 4.59555 5.57997 4.78618 5.43952 4.9268L1.93952 8.3668C1.81195 8.51231 1.63246 8.60205 1.43952 8.6168Z" fill="#F7A81B"/>
</svg>
