<svg width="10" height="9" viewBox="0 0 10 9" fill="none" xmlns="http://www.w3.org/2000/svg">
<path d="M5.92988 8.42822C5.83549 8.42866 5.74197 8.41026 5.6548 8.37409C5.56762 8.33792 5.48855 8.28472 5.42223 8.21759C5.2877 8.08296 5.21214 7.90046 5.21214 7.71018C5.21214 7.5199 5.2877 7.3374 5.42223 7.20277L8.2957 4.33063L5.42223 1.45849C5.35504 1.31941 5.3345 1.16238 5.36367 1.01071C5.39284 0.859035 5.47017 0.720808 5.58416 0.616541C5.69815 0.512274 5.84275 0.447525 5.99647 0.431905C6.1502 0.416285 6.30487 0.450626 6.43752 0.529831L9.78991 3.88066C9.92444 4.01529 10 4.19779 10 4.38807C10 4.57835 9.92444 4.76085 9.78991 4.89548L6.43752 8.18887C6.37367 8.26121 6.29571 8.31975 6.20841 8.36091C6.12112 8.40207 6.02634 8.42497 5.92988 8.42822ZM0.66184 8.42822C0.477035 8.41409 0.305117 8.32817 0.182928 8.18887C0.0651264 8.05723 0 7.8868 0 7.71018C0 7.53356 0.0651264 7.36313 0.182928 7.23149L3.0564 4.35935L0.182928 1.48721C0.118906 1.35322 0.0980176 1.20269 0.123138 1.05634C0.148259 0.909995 0.218154 0.775031 0.323198 0.670035C0.428242 0.56504 0.563269 0.495178 0.709684 0.470069C0.856099 0.44496 1.0067 0.465839 1.14075 0.529831L4.49314 3.88066C4.62767 4.01529 4.70323 4.19779 4.70323 4.38807C4.70323 4.57835 4.62767 4.76085 4.49314 4.89548L1.14075 8.18887C1.01856 8.32817 0.846646 8.41409 0.66184 8.42822Z" fill="#F7A81B"/>
</svg>
