<svg width="11" height="9" viewBox="0 0 11 9" fill="none" xmlns="http://www.w3.org/2000/svg">
<path d="M6.19098 8.78435C6.09244 8.78482 5.9948 8.7656 5.90379 8.72782C5.81278 8.69004 5.73023 8.63447 5.66098 8.56435C5.52053 8.42373 5.44164 8.2331 5.44164 8.03435C5.44164 7.8356 5.52053 7.64498 5.66098 7.50435L8.66098 4.50435L5.66098 1.50435C5.59083 1.35908 5.56939 1.19506 5.59985 1.03664C5.6303 0.878214 5.71103 0.733833 5.83004 0.624924C5.94906 0.516016 6.10001 0.448385 6.26051 0.432069C6.42101 0.415753 6.58249 0.451623 6.72098 0.534354L10.221 4.03435C10.3614 4.17498 10.4403 4.3656 10.4403 4.56435C10.4403 4.7631 10.3614 4.95373 10.221 5.09435L6.72098 8.53435C6.65432 8.60991 6.57292 8.67106 6.48178 8.71405C6.39065 8.75704 6.29169 8.78096 6.19098 8.78435ZM0.690983 8.78435C0.49804 8.7696 0.318552 8.67986 0.190983 8.53435C0.0679941 8.39685 0 8.21884 0 8.03435C0 7.84987 0.0679941 7.67186 0.190983 7.53435L3.19098 4.53435L0.190983 1.53435C0.124142 1.3944 0.102334 1.23717 0.128561 1.0843C0.154788 0.931442 0.22776 0.79047 0.33743 0.6808C0.447099 0.571131 0.588071 0.498159 0.740933 0.471932C0.893795 0.445705 1.05103 0.467513 1.19098 0.534354L4.69098 4.03435C4.83143 4.17498 4.91032 4.3656 4.91032 4.56435C4.91032 4.7631 4.83143 4.95373 4.69098 5.09435L1.19098 8.53435C1.06341 8.67986 0.883926 8.7696 0.690983 8.78435Z" fill="white"/>
</svg>
