<svg width="9" height="5" viewBox="0 0 9 5" fill="none" xmlns="http://www.w3.org/2000/svg">
<path d="M0.0420103 0.690982C0.0567646 0.49804 0.146508 0.318552 0.29201 0.190982C0.429516 0.0679937 0.607528 -3.391e-07 0.792011 -3.31036e-07C0.976494 -3.22972e-07 1.15451 0.0679938 1.29201 0.190983L4.29201 3.19098L7.29201 0.190983C7.43196 0.124142 7.5892 0.102333 7.74206 0.128561C7.89492 0.154788 8.03589 0.22776 8.14556 0.33743C8.25523 0.447099 8.32821 0.588071 8.35443 0.740933C8.38066 0.893795 8.35885 1.05103 8.29201 1.19098L4.79201 4.69098C4.65138 4.83143 4.46076 4.91032 4.26201 4.91032C4.06326 4.91032 3.87264 4.83143 3.73201 4.69098L0.29201 1.19098C0.146508 1.06341 0.0567646 0.883925 0.0420103 0.690982Z" fill="#F7A81B"/>
</svg>
