<svg width="17" height="17" viewBox="0 0 17 17" fill="none" xmlns="http://www.w3.org/2000/svg">
<path fill-rule="evenodd" clip-rule="evenodd" d="M0 8.5C0 3.80545 3.80545 0 8.5 0C13.1946 0 17 3.80545 17 8.5C17 13.1946 13.1946 17 8.5 17C3.80545 17 0 13.1946 0 8.5ZM1.7 8.5C1.7 10.3035 2.41643 12.0331 3.69167 13.3083C4.96692 14.5836 6.69653 15.3 8.5 15.3C10.3035 15.3 12.0331 14.5836 13.3083 13.3083C14.5836 12.0331 15.3 10.3035 15.3 8.5C15.3 6.69653 14.5836 4.96692 13.3083 3.69167C12.0331 2.41643 10.3035 1.7 8.5 1.7C6.69653 1.7 4.96692 2.41643 3.69167 3.69167C2.41643 4.96692 1.7 6.69653 1.7 8.5ZM5.3142 7.1808C5.52075 6.749 5.86075 5.525 6.1064 5.525C6.3512 5.525 6.26195 6.13955 6.48125 6.1931C6.6657 6.23815 6.52375 5.91855 7.0363 5.8616C7.54885 5.80465 8.1073 6.1183 8.1073 6.1183C8.1073 6.1183 8.7125 6.26875 9.27095 6.1183C9.27095 6.1183 8.976 5.6712 9.33725 5.525C9.69765 5.3788 10.189 5.9194 10.2068 6.26875C10.2247 6.6181 9.4044 6.8527 9.4044 6.8527L10.2068 7.33465C10.2068 7.33465 10.4423 6.58835 10.9438 6.5807C11.39 6.5722 11.9493 7.3882 11.6875 7.75625C11.4257 8.1243 11.2574 7.871 11.2574 7.871C11.2574 7.871 10.4584 8.6802 10.2068 8.82555C9.95605 8.97005 9.605 8.82555 9.605 8.82555C9.605 8.82555 9.45625 9.10095 9.605 9.2276C9.90675 9.5387 10.6904 9.8481 10.6904 9.8481C10.6904 9.8481 13.1002 10.24 13.175 10.7313C13.2498 11.2226 11.2574 13.7063 10.9438 13.7063H10.2C9.89655 13.1708 10.6904 11.4588 10.6904 11.4588C10.6904 11.4588 10.2825 11.0066 10.2 10.7313C10.1184 10.4559 10.3581 9.97135 10.3581 9.97135L9.27095 9.4707C9.27095 9.4707 8.69295 9.4707 8.4065 9.24375C8.12005 9.0168 7.96875 7.75625 7.96875 7.75625L6.93175 6.99635C6.93175 6.99635 6.03075 8.14045 5.7375 7.99425C5.4434 7.84805 5.1085 7.61175 5.3142 7.1808ZM10.8987 5.3975C10.1813 5.3975 8.45495 4.4846 8.7448 3.995C8.7448 3.2929 10.5596 3.3983 10.9488 3.3983C11.3382 3.3983 12.2919 3.6992 12.8214 4.1208C13.351 4.54155 12.5978 5.14335 12.3352 5.3975C12.0717 5.6525 11.617 5.3975 10.8987 5.3975Z" fill="white"/>
</svg>
