<svg width="6" height="13" viewBox="0 0 6 13" fill="none" xmlns="http://www.w3.org/2000/svg">
<path d="M4.86457 12.2712C4.74008 12.2717 4.61707 12.2428 4.50459 12.1866C4.3921 12.1305 4.293 12.0486 4.21457 11.9469L0.189573 6.68831C0.0670052 6.53149 0 6.33478 0 6.13177C0 5.92877 0.0670052 5.73206 0.189573 5.57524L4.35624 0.316615C4.49769 0.137632 4.70095 0.0250759 4.9213 0.00370864C5.14166 -0.0176586 5.36106 0.0539129 5.53124 0.202678C5.70142 0.351443 5.80844 0.565216 5.82876 0.796969C5.84907 1.02872 5.78102 1.25947 5.63957 1.43845L1.91457 6.13616L5.51457 10.8339C5.61648 10.9625 5.68121 11.1192 5.70111 11.2853C5.72101 11.4514 5.69524 11.6201 5.62686 11.7713C5.55848 11.9225 5.45035 12.0499 5.31526 12.1385C5.18016 12.2271 5.02377 12.2732 4.86457 12.2712Z" fill="#2E2E2E"/>
</svg>
