<svg width="14" height="14" viewBox="0 0 14 14" fill="none" xmlns="http://www.w3.org/2000/svg">
<path d="M7.00033 1.16699C3.78383 1.16699 1.16699 3.78383 1.16699 7.00033C1.16699 10.2168 3.78383 12.8337 7.00033 12.8337C10.2168 12.8337 12.8337 10.2168 12.8337 7.00033C12.8337 3.78383 10.2168 1.16699 7.00033 1.16699ZM7.00033 11.667C4.42724 11.667 2.33366 9.57341 2.33366 7.00033C2.33366 4.42724 4.42724 2.33366 7.00033 2.33366C9.57341 2.33366 11.667 4.42724 11.667 7.00033C11.667 9.57341 9.57341 11.667 7.00033 11.667Z" fill="#2B2E33"/>
<path d="M7.58366 4.08301H6.41699V7.24117L8.33791 9.16209L9.16274 8.33726L7.58366 6.75817V4.08301Z" fill="#2B2E33"/>
</svg>
