<svg width="332" height="334" viewBox="0 0 332 334" fill="none" xmlns="http://www.w3.org/2000/svg">
<mask id="path-1-outside-1_26_9" maskUnits="userSpaceOnUse" x="-37.5008" y="-35.622" width="407.138" height="407.138" fill="black">
<rect fill="white" x="-37.5008" y="-35.622" width="407.138" height="407.138"/>
<path d="M119.439 263.418L112.344 278.254L108.411 276.305L116.051 261.789C113.937 260.754 112.317 259.591 110.372 258.445L112.11 255.488C117.18 258.264 121.61 260.348 126.817 262.89L125.328 266.047C123.445 264.886 121.505 264.267 119.439 263.418ZM91.064 238.382L76.8884 252.349C77.7785 253.24 78.8587 254.609 79.7488 255.5L93.8763 241.347C92.675 240.273 92.0183 239.52 91.064 238.382ZM105.74 251.004L98.788 261.053L100.036 246.545C98.8987 245.719 98.242 244.965 97.1048 244.139L83.7463 259.477C84.6364 260.368 86.0366 261.193 86.9267 262.083L94.7826 252.723L93.7681 267.369C94.8572 268.01 95.8595 269.333 97.3809 269.863L108.994 253.129C107.966 252.472 106.63 251.895 105.74 251.004ZM133.762 269.336C136.74 270.147 139.657 270.974 142.958 271.504L143.967 268.273C139.329 267.167 135.076 265.763 131.134 264.542L124.415 283.371C129.213 285.096 133.651 286.452 138.522 287.696L139.53 284.466L129.429 281.609L131.288 276.575L137.914 278.485L138.922 275.255C136.595 274.671 134.33 274.071 132.049 273.409L133.762 269.336ZM172.456 195.111C157.262 199.05 141.688 189.828 137.761 174.683C133.834 159.537 143.026 143.893 158.158 139.97C173.352 136.03 188.926 145.253 192.853 160.398C196.78 175.543 187.588 191.187 172.456 195.111ZM170.502 186.051C180.569 183.441 186.744 172.934 184.131 162.857C181.967 154.512 174.332 148.707 165.634 148.719C165.41 147.853 163.984 144.133 163.984 144.133L154.781 146.519C154.781 146.519 155.654 150.647 155.878 151.512C148.874 155.769 145.452 164.178 147.519 172.152C150.18 182.414 160.496 188.646 170.502 186.051ZM179.188 269.631L180.751 281.761L171.858 270.344C170.513 270.495 169.536 270.286 168.237 270.359L168.665 290.568C170.074 290.664 171.556 290.28 172.966 290.377L172.267 278.023L181.393 289.577C182.738 289.426 184.333 289.474 185.815 289.09L182.88 268.872C181.782 268.958 180.533 269.48 179.188 269.631ZM280.521 199.55L264.436 195.474L263.54 199.137L282.838 204.161L286.401 190.703L283.052 189.988L280.521 199.55ZM259.921 208.058L280.796 209.507C280.524 210.237 280.204 210.782 279.948 211.574C279.628 212.119 279.554 212.6 279.282 213.33L275.549 212.913L271.952 220.904L274.636 223.375C273.996 224.465 273.404 225.74 272.825 226.813L261.835 216.204L257.838 212.227L259.921 208.058ZM263.188 211.763L266.481 214.802L269.588 217.889L271.422 213.521L271.815 212.495L263.188 211.763ZM249.584 242.934C250.834 244.193 251.715 245.812 252.164 247.543C252.5 248.841 252.699 250.372 252.293 251.6C251.877 253.555 251.012 255.56 249.386 257.169C245.551 260.935 239.221 260.926 235.409 256.901C235.361 256.715 235.063 256.331 234.752 256.148C233.798 255.01 233.214 253.775 232.893 252.539C232.197 249.091 232.908 245.476 235.671 242.913C239.458 238.962 245.834 238.892 249.584 242.934ZM248.702 248.176C248.43 247.125 247.956 246.061 247.004 245.186C244.506 242.667 240.699 242.73 238.057 244.999C236.168 246.61 235.679 249.046 236.24 251.21C236.512 252.26 236.986 253.325 237.874 253.953C238.107 254.09 238.467 254.459 238.716 254.658C241.192 256.325 244.564 256.111 246.773 253.954C247.278 253.361 247.846 252.753 248.166 252.208C249.055 251.317 249.087 249.66 248.702 248.176ZM252.16 222.869L262.525 229.286L248.002 228.698C247.177 229.835 246.36 230.245 245.72 231.335L261.558 244.117C262.384 242.979 263.271 241.826 263.85 240.752L254.372 233.181L269.08 233.722C269.72 232.633 270.978 231.383 271.57 230.108L254.387 219.257C253.392 220.505 252.8 221.78 252.16 222.869ZM319.408 127.848C319.857 129.579 320.354 131.495 320.553 133.027L320.665 133.46L320.281 133.757C314.666 139.303 306.937 143.814 298.416 146.288C298.504 147.387 299.643 155.338 299.668 156.453C308.183 156.752 317.009 159.016 323.763 163.202L324.061 163.587L324.173 164.02C324.51 167.099 324.518 171.451 324.079 174.336L324.006 174.817L323.574 174.929C316.662 179.03 307.891 181.304 299.425 181.19C299.265 182.353 298.127 190.169 298.169 191.346C306.38 194.033 314.221 198.597 319.47 204.097L319.767 204.482L319.694 204.963C319.302 207.77 318.15 212.225 316.844 215.07L316.771 215.551L316.339 215.663C308.865 217.601 299.719 217.663 291.451 215.519C291.058 216.544 287.832 224.44 287.439 225.465C294.737 229.972 301.234 236.469 304.918 243.562L305.216 243.947L305.079 244.18C303.958 246.978 301.779 250.776 299.865 253.053L299.728 253.287L299.062 253.261C291.277 253.235 282.448 250.708 274.967 246.512C274.262 247.355 269.304 253.654 268.664 254.744C274.32 260.798 278.831 268.535 280.771 276.015L281.043 277.066L280.659 277.363C278.761 279.703 275.726 282.997 273.219 284.768L273.082 285.002L272.601 284.928C264.999 282.809 257.142 278.183 251.053 272.241C250.115 272.946 243.475 278.098 242.723 278.755C244.831 282.563 246.552 286.405 247.61 290.485C248.668 294.565 249.156 298.99 248.99 302.926L249.102 303.358L248.718 303.656C246.458 305.363 242.67 307.533 239.756 308.75L239.324 308.863L239.09 308.725C232.137 304.788 225.641 298.292 221.489 290.924C220.44 291.196 212.992 294.249 212.006 294.768C213.984 303.162 214.034 312.253 211.689 319.986L211.616 320.467L211.184 320.579C208.702 321.684 204.255 322.837 201.363 323.125L200.931 323.237L200.634 322.853C195.089 317.231 190.578 309.494 188.103 300.966C187.005 301.053 178.564 302.054 177.329 302.374C177.219 310.847 174.775 319.727 170.78 326.437L170.643 326.67L170.211 326.783C167.134 327.119 162.721 326.877 159.855 326.499L159.621 326.362L159.324 325.977C157.328 322.602 155.543 318.513 154.437 314.247C153.379 310.167 152.955 305.989 153.009 301.621C151.846 301.46 144.084 300.504 143.059 300.11C140.689 308.51 135.868 316.357 130.253 321.903L129.869 322.201L129.389 322.127C126.273 321.55 122.132 320.578 119.288 319.27L119.055 319.133L118.83 318.268C116.891 310.788 117.074 301.834 119.012 293.546C117.987 293.152 110.096 289.92 109.007 289.279C104.507 296.582 97.9699 302.895 91.1787 306.701L90.7945 306.998L90.3141 306.925C87.4702 305.617 83.9696 303.556 81.4458 301.703L81.1483 301.319L81.2214 300.838C81.1966 292.861 83.7659 284.212 87.9551 276.727C87.1131 276.022 80.5051 270.874 79.3679 270.047C73.1378 276.017 65.2235 280.576 57.6861 282.266L57.2537 282.378L57.0204 282.241C54.6819 280.34 51.6363 277.237 49.618 274.792L49.3205 274.407L49.3936 273.926C51.5079 266.319 56.1271 258.458 62.0621 252.367C61.3573 251.428 56.5013 244.902 55.5975 244.213C48.0034 248.227 39.2972 250.749 31.4481 250.475L30.9677 250.401L30.6702 250.017C28.947 247.693 26.7935 243.963 25.5757 241.046L25.4635 240.613L25.5366 240.132C29.4057 233.191 36.0201 226.924 43.3167 222.525C43.0442 221.474 39.6314 213.651 39.1096 212.401C30.7235 214.377 21.6392 214.423 13.975 212.32L13.4945 212.247L13.3823 211.814C12.8605 210.564 12.3636 208.648 11.9148 206.917C11.466 205.186 11.0332 203.517 10.8178 201.923L10.7056 201.491L11.0899 201.193C16.7047 195.647 24.6807 191.072 33.0188 188.91C32.9316 187.811 31.9917 179.61 31.7031 178.497C23.1884 178.198 14.362 175.934 7.60786 171.748L7.37448 171.611L7.26229 171.178C6.92526 168.099 6.91736 163.746 7.3559 160.862L7.42899 160.381L7.81325 160.083C14.5403 156.03 23.3107 153.756 31.9626 153.822C32.1225 152.659 33.2599 144.843 33.4037 143.618C25.0097 141.242 17.2145 136.6 11.8554 130.931L11.558 130.546L11.631 130.065C12.2549 127.133 13.2399 123.051 14.3602 120.253L14.4333 119.772L14.8656 119.66C22.5379 117.473 31.485 117.66 39.7531 119.805C40.1464 118.779 43.3724 110.883 44.0127 109.794C36.7139 105.287 30.2177 98.7905 26.5329 91.6971L26.4207 91.2644L26.4938 90.7836C27.7993 87.9381 30.0564 84.1862 31.9546 81.8467L32.3388 81.5492L32.7712 81.4371C40.7414 81.4157 49.6318 83.9266 56.8664 88.1863C57.5708 87.3439 62.3437 81.0924 63.0321 80.1882C57.1285 74.1979 52.6176 66.4611 50.6782 58.9812L50.4057 57.9303L50.79 57.6327C52.5029 55.3413 55.7872 52.2466 58.031 50.4773L58.1682 50.2438L58.6486 50.3172C66.203 52.2509 74.108 57.0625 80.1969 63.0047C81.1347 62.2998 88.0216 57.0835 88.9593 56.3785C86.8515 52.5708 85.1303 48.7288 84.3194 44.5848C83.2135 40.3193 82.5879 36.1273 82.9393 32.1437L82.8271 31.711L83.2594 31.5989C85.581 29.8754 89.3071 27.7218 92.2213 26.5043L92.6536 26.3922L93.134 26.4656C100.087 30.4024 106.336 36.9628 110.735 44.267C111.737 43.8093 119.665 40.8299 120.651 40.3104C118.673 31.917 118.622 22.8257 121.032 15.3397L121.105 14.8589L121.489 14.5614C124.342 13.3599 128.665 12.2389 131.556 11.951L132.037 12.0244L132.334 12.4091C138.126 17.9666 142.39 25.7675 144.553 34.1129C145.899 33.9621 154.093 33.0249 155.191 32.9382C155.438 24.2315 157.744 15.5848 161.924 8.82715L162.062 8.59366L162.542 8.66701C165.619 8.33105 169.968 8.32501 172.85 8.76512L173.331 8.83848L173.628 9.22316C175.75 12.8294 177.409 16.6874 178.467 20.7674C179.525 24.8473 180.013 29.2729 179.895 33.3939C181.058 33.5544 189.611 34.7671 190.774 34.9276C193.208 26.7754 197.765 18.9303 203.442 13.3681L203.826 13.0706L204.307 13.1439C207.173 13.5222 211.564 14.6929 214.16 16.0648L214.641 16.1382L214.913 17.1891C216.853 24.669 216.67 33.6229 214.668 41.663C215.692 42.057 223.398 45.3369 224.425 45.9942C228.926 38.6918 235.414 32.1933 242.453 28.3232L242.837 28.0257L243.381 28.3463C246.177 29.4686 250.037 31.8985 252.25 33.5679L252.547 33.9526L252.474 34.4333C252.499 42.4097 249.994 51.306 245.74 58.5443C246.582 59.2496 253.005 64.4456 254.016 65.041C260.432 59.0233 268.225 54.7596 275.945 52.7578L276.378 52.6457L276.675 53.0304C279.199 54.883 282.306 57.9698 283.828 60.2801L284.126 60.6648L284.052 61.1455C281.769 68.8628 277.195 76.646 271.276 82.7988C271.981 83.7376 276.837 90.2634 277.494 91.0168C284.903 87.0506 293.794 84.4813 301.643 84.7552L302.076 84.6431L302.373 85.0278C304.08 87.2901 306.25 91.0818 307.406 94.0148L307.518 94.4475L307.381 94.681C303.45 101.638 296.897 107.889 289.601 112.288C290.059 113.291 292.975 120.979 293.511 122.028C302.082 120.003 310.981 120.005 318.709 122.355L319.19 122.429L319.302 122.862C318.277 124.249 318.895 125.87 319.408 127.848ZM64.9236 97.9065L81.1778 108.734C83.404 110.202 85.2706 109.52 87.2419 106.7C100.031 89.9253 118.645 77.3141 140.447 71.6611C162.249 66.008 184.694 68.1712 204.159 76.3848C207.25 77.6286 209.229 77.3794 210.448 75.2161L219.393 57.8548C220.491 55.9868 219.93 53.8232 216.541 52.1948C191.093 41.2442 162.183 37.7885 133.525 45.2191C104.867 52.6497 81.0312 69.7816 64.6041 91.5899C62.4499 94.7214 62.9949 96.8232 64.9236 97.9065ZM81.0978 156.981C79.3911 156.5 77.8216 155.786 76.6368 156.555C75.6349 157.012 75.244 158.301 75.2444 160.083C74.5268 181.974 79.0147 199.283 90.215 217.82C90.9839 219.006 91.7529 220.192 93.146 220.227C94.3082 220.387 95.493 219.618 97.0711 217.824L129.243 180.982C130.453 179.546 130.981 178.024 130.596 176.54C130.211 175.057 129.01 173.983 127.255 173.316L81.0978 156.981ZM83.6402 131.45C84.2101 132.886 85.9305 133.165 87.5731 133.399L135.699 143.088C137.653 143.505 139.135 143.121 140.256 142.105C141.328 140.903 141.609 139.444 141.359 137.464L132.495 89.2928C132.071 86.8956 131.364 85.6936 130.524 85.2515C129.435 84.6103 128.202 85.1939 127.015 85.6996C107.792 95.9617 95.2422 108.32 84.4719 127.54C83.2645 129.239 83.1687 130.649 83.6402 131.45ZM112.308 239.471C112.532 240.336 113.422 241.227 114.559 242.054C133.312 253.619 150.239 258.4 172.073 257.951C173.482 258.048 174.827 257.897 175.421 256.885C176.126 256.043 176.158 254.385 175.365 252.347L159.659 205.752C159.025 204.069 157.961 202.762 156.503 202.48C155.046 202.198 153.564 202.582 151.995 203.649L114.825 235.454C113.503 236.456 112.245 237.706 112.15 239.116C112.195 239.038 112.259 239.286 112.308 239.471ZM173.241 198.14C190.102 193.768 200.271 176.551 195.88 159.613C191.488 142.675 174.296 132.553 157.373 136.941C140.45 141.328 130.358 158.591 134.734 175.467C139.11 192.344 156.318 202.528 173.241 198.14ZM200.522 249.717C201.3 250.175 202.597 249.839 204.214 248.958C223.252 238.743 235.987 226.337 246.51 207.181C247.102 205.906 247.864 204.521 247.159 203.582C246.701 202.579 245.301 201.755 243.178 201.448L195.052 191.759C193.099 191.342 191.616 191.726 190.544 192.928C189.471 194.13 189.19 195.588 189.44 197.568L198.305 245.74C198.936 247.159 199.138 248.954 200.522 249.717ZM249.887 178.003C251.408 178.532 253.163 179.199 254.3 178.244C255.116 177.835 255.692 176.498 255.692 174.717C256.41 152.825 251.922 135.516 240.721 116.979C239.953 115.793 239.184 114.607 238.037 114.508C236.875 114.348 235.69 115.117 234.112 116.911L201.941 153.753C200.731 155.189 200.203 156.711 200.587 158.195C200.972 159.678 202.173 160.752 203.928 161.419L249.887 178.003ZM219.109 95.4014C218.885 94.5359 218.18 93.5971 216.858 92.8185C198.352 81.1892 181.116 76.4881 159.344 76.9212C158.246 77.008 156.59 76.9756 155.995 77.9874C155.291 78.8298 155.259 80.4874 156.051 82.5251L171.758 129.12C172.392 130.803 173.456 132.111 174.914 132.392C176.371 132.674 178.039 132.242 179.374 131.038L216.793 99.4326C217.93 98.4782 219.421 97.3658 219.283 95.8181C219.221 95.8341 219.343 95.5388 219.109 95.4014ZM58.8053 227.35L75.5692 217.263C77.1864 216.382 78.1718 214.082 77.3638 211.982C61.9876 179.881 63.1769 150.149 77.2967 123.001C78.8267 121.021 78.3525 118.175 75.8151 116.524L59.1517 106.66C57.47 105.513 55.123 106.121 53.7533 108.72C35.4782 141.959 33.2263 186.151 53.4976 225.691C54.6899 227.493 56.5569 228.592 58.8053 227.35ZM287.221 178.615L267.46 177.141C266.483 176.932 263.951 177.589 263.488 181.14C257.878 220.265 229.991 253.292 190.215 263.605C150.44 273.918 109.178 258.161 85.9437 226.515C84.2205 224.191 81.6265 224.863 80.8259 225.335L64.2704 236.225C62.516 237.339 61.6678 239.406 63.391 241.731C92.8818 282.509 145.423 303.126 196.933 289.77C248.444 276.414 284.546 232.615 290.508 182.645C291.042 180.131 289.498 178.75 287.221 178.615ZM234.628 61.9535C232.337 60.2383 229.437 61.2542 228.957 62.962L219.186 79.6799C217.768 82.0927 218.739 85.0737 221.038 86.0609C246.554 102.866 261.993 128.089 264.2 163.802C264.575 166.014 266.554 167.546 268.334 167.546L287.871 168.154C290.378 168.164 291.723 166.232 291.658 164.203C290.378 119.607 266.889 81.8914 234.628 61.9535ZM217.144 256.623C211.922 259.362 207.686 261.582 202.351 263.889L203.617 266.991C205.667 265.998 207.533 265.316 209.569 264.524L216.404 279.444L220.255 277.521L212.803 262.762C214.853 261.769 216.607 260.654 218.595 259.677L217.144 256.623ZM162.525 273.753L162.798 274.804C163.286 277.449 161.967 280.496 159.299 281.649L162.241 290.452C160.695 290.589 159.162 290.525 157.643 290.259L155.246 281.776L150.968 281.038L149.942 289.287C148.533 289.191 147.124 289.094 145.914 288.748L147.355 278.544L147.515 277.381L148.787 269.069L158.439 270.195C160.516 270.58 161.83 272.086 162.525 273.753ZM158.881 274.698C158.536 274.128 158.177 273.759 157.495 273.672L152.105 273.222L151.824 276.462L151.664 277.625L156.622 278.187C158.079 278.469 158.809 276.96 158.953 275.735C159.106 275.564 159.179 275.083 158.881 274.698ZM201.832 273.326L208.754 282.483C207.457 282.819 206.27 283.325 205.037 283.908L202.907 281.03L194.617 283.377L194.634 287.001C193.289 287.152 191.991 287.489 190.756 287.809L191.627 276.17L192.122 267.399L192.259 267.165L196.472 265.875L196.77 266.26L201.832 273.326ZM200.184 277.646L197.756 274.383L195.215 270.687L194.976 275.103L194.673 279.272L200.184 277.646ZM221.389 253.675L232.589 270.431L236.082 268.14L225.193 251.567C223.576 252.448 222.759 252.858 221.389 253.675Z"/>
</mask>
<path d="M119.439 263.418L112.344 278.254L108.411 276.305L116.051 261.789C113.937 260.754 112.317 259.591 110.372 258.445L112.11 255.488C117.18 258.264 121.61 260.348 126.817 262.89L125.328 266.047C123.445 264.886 121.505 264.267 119.439 263.418ZM91.064 238.382L76.8884 252.349C77.7785 253.24 78.8587 254.609 79.7488 255.5L93.8763 241.347C92.675 240.273 92.0183 239.52 91.064 238.382ZM105.74 251.004L98.788 261.053L100.036 246.545C98.8987 245.719 98.242 244.965 97.1048 244.139L83.7463 259.477C84.6364 260.368 86.0366 261.193 86.9267 262.083L94.7826 252.723L93.7681 267.369C94.8572 268.01 95.8595 269.333 97.3809 269.863L108.994 253.129C107.966 252.472 106.63 251.895 105.74 251.004ZM133.762 269.336C136.74 270.147 139.657 270.974 142.958 271.504L143.967 268.273C139.329 267.167 135.076 265.763 131.134 264.542L124.415 283.371C129.213 285.096 133.651 286.452 138.522 287.696L139.53 284.466L129.429 281.609L131.288 276.575L137.914 278.485L138.922 275.255C136.595 274.671 134.33 274.071 132.049 273.409L133.762 269.336ZM172.456 195.111C157.262 199.05 141.688 189.828 137.761 174.683C133.834 159.537 143.026 143.893 158.158 139.97C173.352 136.03 188.926 145.253 192.853 160.398C196.78 175.543 187.588 191.187 172.456 195.111ZM170.502 186.051C180.569 183.441 186.744 172.934 184.131 162.857C181.967 154.512 174.332 148.707 165.634 148.719C165.41 147.853 163.984 144.133 163.984 144.133L154.781 146.519C154.781 146.519 155.654 150.647 155.878 151.512C148.874 155.769 145.452 164.178 147.519 172.152C150.18 182.414 160.496 188.646 170.502 186.051ZM179.188 269.631L180.751 281.761L171.858 270.344C170.513 270.495 169.536 270.286 168.237 270.359L168.665 290.568C170.074 290.664 171.556 290.28 172.966 290.377L172.267 278.023L181.393 289.577C182.738 289.426 184.333 289.474 185.815 289.09L182.88 268.872C181.782 268.958 180.533 269.48 179.188 269.631ZM280.521 199.55L264.436 195.474L263.54 199.137L282.838 204.161L286.401 190.703L283.052 189.988L280.521 199.55ZM259.921 208.058L280.796 209.507C280.524 210.237 280.204 210.782 279.948 211.574C279.628 212.119 279.554 212.6 279.282 213.33L275.549 212.913L271.952 220.904L274.636 223.375C273.996 224.465 273.404 225.74 272.825 226.813L261.835 216.204L257.838 212.227L259.921 208.058ZM263.188 211.763L266.481 214.802L269.588 217.889L271.422 213.521L271.815 212.495L263.188 211.763ZM249.584 242.934C250.834 244.193 251.715 245.812 252.164 247.543C252.5 248.841 252.699 250.372 252.293 251.6C251.877 253.555 251.012 255.56 249.386 257.169C245.551 260.935 239.221 260.926 235.409 256.901C235.361 256.715 235.063 256.331 234.752 256.148C233.798 255.01 233.214 253.775 232.893 252.539C232.197 249.091 232.908 245.476 235.671 242.913C239.458 238.962 245.834 238.892 249.584 242.934ZM248.702 248.176C248.43 247.125 247.956 246.061 247.004 245.186C244.506 242.667 240.699 242.73 238.057 244.999C236.168 246.61 235.679 249.046 236.24 251.21C236.512 252.26 236.986 253.325 237.874 253.953C238.107 254.09 238.467 254.459 238.716 254.658C241.192 256.325 244.564 256.111 246.773 253.954C247.278 253.361 247.846 252.753 248.166 252.208C249.055 251.317 249.087 249.66 248.702 248.176ZM252.16 222.869L262.525 229.286L248.002 228.698C247.177 229.835 246.36 230.245 245.72 231.335L261.558 244.117C262.384 242.979 263.271 241.826 263.85 240.752L254.372 233.181L269.08 233.722C269.72 232.633 270.978 231.383 271.57 230.108L254.387 219.257C253.392 220.505 252.8 221.78 252.16 222.869ZM319.408 127.848C319.857 129.579 320.354 131.495 320.553 133.027L320.665 133.46L320.281 133.757C314.666 139.303 306.937 143.814 298.416 146.288C298.504 147.387 299.643 155.338 299.668 156.453C308.183 156.752 317.009 159.016 323.763 163.202L324.061 163.587L324.173 164.02C324.51 167.099 324.518 171.451 324.079 174.336L324.006 174.817L323.574 174.929C316.662 179.03 307.891 181.304 299.425 181.19C299.265 182.353 298.127 190.169 298.169 191.346C306.38 194.033 314.221 198.597 319.47 204.097L319.767 204.482L319.694 204.963C319.302 207.77 318.15 212.225 316.844 215.07L316.771 215.551L316.339 215.663C308.865 217.601 299.719 217.663 291.451 215.519C291.058 216.544 287.832 224.44 287.439 225.465C294.737 229.972 301.234 236.469 304.918 243.562L305.216 243.947L305.079 244.18C303.958 246.978 301.779 250.776 299.865 253.053L299.728 253.287L299.062 253.261C291.277 253.235 282.448 250.708 274.967 246.512C274.262 247.355 269.304 253.654 268.664 254.744C274.32 260.798 278.831 268.535 280.771 276.015L281.043 277.066L280.659 277.363C278.761 279.703 275.726 282.997 273.219 284.768L273.082 285.002L272.601 284.928C264.999 282.809 257.142 278.183 251.053 272.241C250.115 272.946 243.475 278.098 242.723 278.755C244.831 282.563 246.552 286.405 247.61 290.485C248.668 294.565 249.156 298.99 248.99 302.926L249.102 303.358L248.718 303.656C246.458 305.363 242.67 307.533 239.756 308.75L239.324 308.863L239.09 308.725C232.137 304.788 225.641 298.292 221.489 290.924C220.44 291.196 212.992 294.249 212.006 294.768C213.984 303.162 214.034 312.253 211.689 319.986L211.616 320.467L211.184 320.579C208.702 321.684 204.255 322.837 201.363 323.125L200.931 323.237L200.634 322.853C195.089 317.231 190.578 309.494 188.103 300.966C187.005 301.053 178.564 302.054 177.329 302.374C177.219 310.847 174.775 319.727 170.78 326.437L170.643 326.67L170.211 326.783C167.134 327.119 162.721 326.877 159.855 326.499L159.621 326.362L159.324 325.977C157.328 322.602 155.543 318.513 154.437 314.247C153.379 310.167 152.955 305.989 153.009 301.621C151.846 301.46 144.084 300.504 143.059 300.11C140.689 308.51 135.868 316.357 130.253 321.903L129.869 322.201L129.389 322.127C126.273 321.55 122.132 320.578 119.288 319.27L119.055 319.133L118.83 318.268C116.891 310.788 117.074 301.834 119.012 293.546C117.987 293.152 110.096 289.92 109.007 289.279C104.507 296.582 97.9699 302.895 91.1787 306.701L90.7945 306.998L90.3141 306.925C87.4702 305.617 83.9696 303.556 81.4458 301.703L81.1483 301.319L81.2214 300.838C81.1966 292.861 83.7659 284.212 87.9551 276.727C87.1131 276.022 80.5051 270.874 79.3679 270.047C73.1378 276.017 65.2235 280.576 57.6861 282.266L57.2537 282.378L57.0204 282.241C54.6819 280.34 51.6363 277.237 49.618 274.792L49.3205 274.407L49.3936 273.926C51.5079 266.319 56.1271 258.458 62.0621 252.367C61.3573 251.428 56.5013 244.902 55.5975 244.213C48.0034 248.227 39.2972 250.749 31.4481 250.475L30.9677 250.401L30.6702 250.017C28.947 247.693 26.7935 243.963 25.5757 241.046L25.4635 240.613L25.5366 240.132C29.4057 233.191 36.0201 226.924 43.3167 222.525C43.0442 221.474 39.6314 213.651 39.1096 212.401C30.7235 214.377 21.6392 214.423 13.975 212.32L13.4945 212.247L13.3823 211.814C12.8605 210.564 12.3636 208.648 11.9148 206.917C11.466 205.186 11.0332 203.517 10.8178 201.923L10.7056 201.491L11.0899 201.193C16.7047 195.647 24.6807 191.072 33.0188 188.91C32.9316 187.811 31.9917 179.61 31.7031 178.497C23.1884 178.198 14.362 175.934 7.60786 171.748L7.37448 171.611L7.26229 171.178C6.92526 168.099 6.91736 163.746 7.3559 160.862L7.42899 160.381L7.81325 160.083C14.5403 156.03 23.3107 153.756 31.9626 153.822C32.1225 152.659 33.2599 144.843 33.4037 143.618C25.0097 141.242 17.2145 136.6 11.8554 130.931L11.558 130.546L11.631 130.065C12.2549 127.133 13.2399 123.051 14.3602 120.253L14.4333 119.772L14.8656 119.66C22.5379 117.473 31.485 117.66 39.7531 119.805C40.1464 118.779 43.3724 110.883 44.0127 109.794C36.7139 105.287 30.2177 98.7905 26.5329 91.6971L26.4207 91.2644L26.4938 90.7836C27.7993 87.9381 30.0564 84.1862 31.9546 81.8467L32.3388 81.5492L32.7712 81.4371C40.7414 81.4157 49.6318 83.9266 56.8664 88.1863C57.5708 87.3439 62.3437 81.0924 63.0321 80.1882C57.1285 74.1979 52.6176 66.4611 50.6782 58.9812L50.4057 57.9303L50.79 57.6327C52.5029 55.3413 55.7872 52.2466 58.031 50.4773L58.1682 50.2438L58.6486 50.3172C66.203 52.2509 74.108 57.0625 80.1969 63.0047C81.1347 62.2998 88.0216 57.0835 88.9593 56.3785C86.8515 52.5708 85.1303 48.7288 84.3194 44.5848C83.2135 40.3193 82.5879 36.1273 82.9393 32.1437L82.8271 31.711L83.2594 31.5989C85.581 29.8754 89.3071 27.7218 92.2213 26.5043L92.6536 26.3922L93.134 26.4656C100.087 30.4024 106.336 36.9628 110.735 44.267C111.737 43.8093 119.665 40.8299 120.651 40.3104C118.673 31.917 118.622 22.8257 121.032 15.3397L121.105 14.8589L121.489 14.5614C124.342 13.3599 128.665 12.2389 131.556 11.951L132.037 12.0244L132.334 12.4091C138.126 17.9666 142.39 25.7675 144.553 34.1129C145.899 33.9621 154.093 33.0249 155.191 32.9382C155.438 24.2315 157.744 15.5848 161.924 8.82715L162.062 8.59366L162.542 8.66701C165.619 8.33105 169.968 8.32501 172.85 8.76512L173.331 8.83848L173.628 9.22316C175.75 12.8294 177.409 16.6874 178.467 20.7674C179.525 24.8473 180.013 29.2729 179.895 33.3939C181.058 33.5544 189.611 34.7671 190.774 34.9276C193.208 26.7754 197.765 18.9303 203.442 13.3681L203.826 13.0706L204.307 13.1439C207.173 13.5222 211.564 14.6929 214.16 16.0648L214.641 16.1382L214.913 17.1891C216.853 24.669 216.67 33.6229 214.668 41.663C215.692 42.057 223.398 45.3369 224.425 45.9942C228.926 38.6918 235.414 32.1933 242.453 28.3232L242.837 28.0257L243.381 28.3463C246.177 29.4686 250.037 31.8985 252.25 33.5679L252.547 33.9526L252.474 34.4333C252.499 42.4097 249.994 51.306 245.74 58.5443C246.582 59.2496 253.005 64.4456 254.016 65.041C260.432 59.0233 268.225 54.7596 275.945 52.7578L276.378 52.6457L276.675 53.0304C279.199 54.883 282.306 57.9698 283.828 60.2801L284.126 60.6648L284.052 61.1455C281.769 68.8628 277.195 76.646 271.276 82.7988C271.981 83.7376 276.837 90.2634 277.494 91.0168C284.903 87.0506 293.794 84.4813 301.643 84.7552L302.076 84.6431L302.373 85.0278C304.08 87.2901 306.25 91.0818 307.406 94.0148L307.518 94.4475L307.381 94.681C303.45 101.638 296.897 107.889 289.601 112.288C290.059 113.291 292.975 120.979 293.511 122.028C302.082 120.003 310.981 120.005 318.709 122.355L319.19 122.429L319.302 122.862C318.277 124.249 318.895 125.87 319.408 127.848ZM64.9236 97.9065L81.1778 108.734C83.404 110.202 85.2706 109.52 87.2419 106.7C100.031 89.9253 118.645 77.3141 140.447 71.6611C162.249 66.008 184.694 68.1712 204.159 76.3848C207.25 77.6286 209.229 77.3794 210.448 75.2161L219.393 57.8548C220.491 55.9868 219.93 53.8232 216.541 52.1948C191.093 41.2442 162.183 37.7885 133.525 45.2191C104.867 52.6497 81.0312 69.7816 64.6041 91.5899C62.4499 94.7214 62.9949 96.8232 64.9236 97.9065ZM81.0978 156.981C79.3911 156.5 77.8216 155.786 76.6368 156.555C75.6349 157.012 75.244 158.301 75.2444 160.083C74.5268 181.974 79.0147 199.283 90.215 217.82C90.9839 219.006 91.7529 220.192 93.146 220.227C94.3082 220.387 95.493 219.618 97.0711 217.824L129.243 180.982C130.453 179.546 130.981 178.024 130.596 176.54C130.211 175.057 129.01 173.983 127.255 173.316L81.0978 156.981ZM83.6402 131.45C84.2101 132.886 85.9305 133.165 87.5731 133.399L135.699 143.088C137.653 143.505 139.135 143.121 140.256 142.105C141.328 140.903 141.609 139.444 141.359 137.464L132.495 89.2928C132.071 86.8956 131.364 85.6936 130.524 85.2515C129.435 84.6103 128.202 85.1939 127.015 85.6996C107.792 95.9617 95.2422 108.32 84.4719 127.54C83.2645 129.239 83.1687 130.649 83.6402 131.45ZM112.308 239.471C112.532 240.336 113.422 241.227 114.559 242.054C133.312 253.619 150.239 258.4 172.073 257.951C173.482 258.048 174.827 257.897 175.421 256.885C176.126 256.043 176.158 254.385 175.365 252.347L159.659 205.752C159.025 204.069 157.961 202.762 156.503 202.48C155.046 202.198 153.564 202.582 151.995 203.649L114.825 235.454C113.503 236.456 112.245 237.706 112.15 239.116C112.195 239.038 112.259 239.286 112.308 239.471ZM173.241 198.14C190.102 193.768 200.271 176.551 195.88 159.613C191.488 142.675 174.296 132.553 157.373 136.941C140.45 141.328 130.358 158.591 134.734 175.467C139.11 192.344 156.318 202.528 173.241 198.14ZM200.522 249.717C201.3 250.175 202.597 249.839 204.214 248.958C223.252 238.743 235.987 226.337 246.51 207.181C247.102 205.906 247.864 204.521 247.159 203.582C246.701 202.579 245.301 201.755 243.178 201.448L195.052 191.759C193.099 191.342 191.616 191.726 190.544 192.928C189.471 194.13 189.19 195.588 189.44 197.568L198.305 245.74C198.936 247.159 199.138 248.954 200.522 249.717ZM249.887 178.003C251.408 178.532 253.163 179.199 254.3 178.244C255.116 177.835 255.692 176.498 255.692 174.717C256.41 152.825 251.922 135.516 240.721 116.979C239.953 115.793 239.184 114.607 238.037 114.508C236.875 114.348 235.69 115.117 234.112 116.911L201.941 153.753C200.731 155.189 200.203 156.711 200.587 158.195C200.972 159.678 202.173 160.752 203.928 161.419L249.887 178.003ZM219.109 95.4014C218.885 94.5359 218.18 93.5971 216.858 92.8185C198.352 81.1892 181.116 76.4881 159.344 76.9212C158.246 77.008 156.59 76.9756 155.995 77.9874C155.291 78.8298 155.259 80.4874 156.051 82.5251L171.758 129.12C172.392 130.803 173.456 132.111 174.914 132.392C176.371 132.674 178.039 132.242 179.374 131.038L216.793 99.4326C217.93 98.4782 219.421 97.3658 219.283 95.8181C219.221 95.8341 219.343 95.5388 219.109 95.4014ZM58.8053 227.35L75.5692 217.263C77.1864 216.382 78.1718 214.082 77.3638 211.982C61.9876 179.881 63.1769 150.149 77.2967 123.001C78.8267 121.021 78.3525 118.175 75.8151 116.524L59.1517 106.66C57.47 105.513 55.123 106.121 53.7533 108.72C35.4782 141.959 33.2263 186.151 53.4976 225.691C54.6899 227.493 56.5569 228.592 58.8053 227.35ZM287.221 178.615L267.46 177.141C266.483 176.932 263.951 177.589 263.488 181.14C257.878 220.265 229.991 253.292 190.215 263.605C150.44 273.918 109.178 258.161 85.9437 226.515C84.2205 224.191 81.6265 224.863 80.8259 225.335L64.2704 236.225C62.516 237.339 61.6678 239.406 63.391 241.731C92.8818 282.509 145.423 303.126 196.933 289.77C248.444 276.414 284.546 232.615 290.508 182.645C291.042 180.131 289.498 178.75 287.221 178.615ZM234.628 61.9535C232.337 60.2383 229.437 61.2542 228.957 62.962L219.186 79.6799C217.768 82.0927 218.739 85.0737 221.038 86.0609C246.554 102.866 261.993 128.089 264.2 163.802C264.575 166.014 266.554 167.546 268.334 167.546L287.871 168.154C290.378 168.164 291.723 166.232 291.658 164.203C290.378 119.607 266.889 81.8914 234.628 61.9535ZM217.144 256.623C211.922 259.362 207.686 261.582 202.351 263.889L203.617 266.991C205.667 265.998 207.533 265.316 209.569 264.524L216.404 279.444L220.255 277.521L212.803 262.762C214.853 261.769 216.607 260.654 218.595 259.677L217.144 256.623ZM162.525 273.753L162.798 274.804C163.286 277.449 161.967 280.496 159.299 281.649L162.241 290.452C160.695 290.589 159.162 290.525 157.643 290.259L155.246 281.776L150.968 281.038L149.942 289.287C148.533 289.191 147.124 289.094 145.914 288.748L147.355 278.544L147.515 277.381L148.787 269.069L158.439 270.195C160.516 270.58 161.83 272.086 162.525 273.753ZM158.881 274.698C158.536 274.128 158.177 273.759 157.495 273.672L152.105 273.222L151.824 276.462L151.664 277.625L156.622 278.187C158.079 278.469 158.809 276.96 158.953 275.735C159.106 275.564 159.179 275.083 158.881 274.698ZM201.832 273.326L208.754 282.483C207.457 282.819 206.27 283.325 205.037 283.908L202.907 281.03L194.617 283.377L194.634 287.001C193.289 287.152 191.991 287.489 190.756 287.809L191.627 276.17L192.122 267.399L192.259 267.165L196.472 265.875L196.77 266.26L201.832 273.326ZM200.184 277.646L197.756 274.383L195.215 270.687L194.976 275.103L194.673 279.272L200.184 277.646ZM221.389 253.675L232.589 270.431L236.082 268.14L225.193 251.567C223.576 252.448 222.759 252.858 221.389 253.675Z" stroke="#F5E8D2" stroke-opacity="0.44" stroke-width="14" mask="url(#path-1-outside-1_26_9)"/>
</svg>
