<?xml version="1.0" encoding="UTF-8"?>
<svg width="13" height="9" viewBox="0 0 13 9" fill="none" xmlns="http://www.w3.org/2000/svg">
<path d="M7.22281 8.35613C7.10785 8.3566 6.99394 8.33738 6.88775 8.2996C6.78157 8.26182 6.68527 8.20624 6.60448 8.13613C6.44062 7.99551 6.34858 7.80488 6.34858 7.60613C6.34858 7.40738 6.44062 7.21676 6.60448 7.07613L10.1045 4.07613L6.60448 1.07613C6.52264 0.930858 6.49763 0.766837 6.53316 0.608414C6.56869 0.449991 6.66287 0.30561 6.80172 0.196702C6.94057 0.0877931 7.11668 0.0201621 7.30393 0.0038464C7.49118 -0.0124693 7.67957 0.0234003 7.84115 0.106131L11.9245 3.60613C12.0883 3.74676 12.1804 3.93738 12.1804 4.13613C12.1804 4.33488 12.0883 4.52551 11.9245 4.66613L7.84115 8.10613C7.76337 8.18169 7.66841 8.24284 7.56208 8.28583C7.45576 8.32882 7.34031 8.35274 7.22281 8.35613ZM0.806147 8.35613C0.581047 8.34138 0.371644 8.25163 0.222813 8.10613C0.0793265 7.96863 0 7.79062 0 7.60613C0 7.42165 0.0793265 7.24364 0.222813 7.10613L3.72281 4.10613L0.222813 1.10613C0.144832 0.966178 0.119389 0.808944 0.149987 0.656082C0.180586 0.50322 0.26572 0.362247 0.393668 0.252578C0.521615 0.142908 0.686083 0.0699361 0.864422 0.043709C1.04276 0.017482 1.2262 0.0392905 1.38948 0.106131L5.47281 3.60613C5.63667 3.74676 5.72871 3.93738 5.72871 4.13613C5.72871 4.33488 5.63667 4.52551 5.47281 4.66613L1.38948 8.10613C1.24065 8.25163 1.03125 8.34138 0.806147 8.35613Z" fill="#F7A81B"/>
</svg>
