<?xml version="1.0" encoding="UTF-8"?>
<svg width="12" height="10" viewBox="0 0 12 10" fill="none" xmlns="http://www.w3.org/2000/svg">
<path d="M6.99994 9.24999C6.9014 9.25046 6.80376 9.23124 6.71275 9.19346C6.62174 9.15568 6.53919 9.1001 6.46994 9.02999C6.32949 8.88937 6.2506 8.69874 6.2506 8.49999C6.2506 8.30124 6.32949 8.11062 6.46994 7.96999L9.46994 4.96999L6.46994 1.96999C6.39979 1.82472 6.37835 1.6607 6.40881 1.50227C6.43926 1.34385 6.51999 1.19947 6.639 1.09056C6.75802 0.981653 6.90897 0.914022 7.06947 0.897706C7.22997 0.881391 7.39145 0.91726 7.52994 0.999991L11.0299 4.49999C11.1704 4.64062 11.2493 4.83124 11.2493 5.02999C11.2493 5.22874 11.1704 5.41937 11.0299 5.55999L7.52994 8.99999C7.46328 9.07555 7.38188 9.1367 7.29074 9.17969C7.19961 9.22268 7.10065 9.2466 6.99994 9.24999ZM1.49994 9.24999C1.307 9.23524 1.12751 9.14549 0.999943 8.99999C0.876954 8.86249 0.80896 8.68447 0.80896 8.49999C0.80896 8.31551 0.876954 8.1375 0.999943 7.99999L3.99994 4.99999L0.999943 1.99999C0.933102 1.86004 0.911293 1.7028 0.937521 1.54994C0.963748 1.39708 1.03672 1.25611 1.14639 1.14644C1.25606 1.03677 1.39703 0.963796 1.54989 0.937569C1.70276 0.911342 1.85999 0.93315 1.99994 0.999991L5.49994 4.49999C5.64039 4.64062 5.71928 4.83124 5.71928 5.02999C5.71928 5.22874 5.64039 5.41937 5.49994 5.55999L1.99994 8.99999C1.87237 9.14549 1.69289 9.23524 1.49994 9.24999Z" fill="white"/>
</svg>
