<?xml version="1.0" encoding="UTF-8"?>
<svg width="28" height="16" viewBox="0 0 28 16" fill="none" xmlns="http://www.w3.org/2000/svg">
<path fill-rule="evenodd" clip-rule="evenodd" d="M0.497696 0.872757C0.596393 0.77381 0.713641 0.695306 0.842725 0.641742C0.971808 0.588178 1.11019 0.560608 1.24995 0.560608C1.3897 0.560608 1.52808 0.588178 1.65717 0.641742C1.78625 0.695306 1.9035 0.77381 2.0022 0.872757L13.9999 12.8726L25.9977 0.872757C26.0965 0.77397 26.2138 0.695608 26.3428 0.642144C26.4719 0.588681 26.6102 0.561164 26.7499 0.561164C26.8897 0.561164 27.028 0.588681 27.1571 0.642144C27.2861 0.695608 27.4034 0.77397 27.5022 0.872757C27.601 0.971543 27.6793 1.08882 27.7328 1.21789C27.7863 1.34696 27.8138 1.4853 27.8138 1.62501C27.8138 1.76471 27.7863 1.90305 27.7328 2.03212C27.6793 2.16119 27.601 2.27847 27.5022 2.37726L14.7522 15.1273C14.6535 15.2262 14.5362 15.3047 14.4072 15.3583C14.2781 15.4118 14.1397 15.4394 13.9999 15.4394C13.8602 15.4394 13.7218 15.4118 13.5927 15.3583C13.4636 15.3047 13.3464 15.2262 13.2477 15.1273L0.497696 2.37726C0.398749 2.27856 0.320246 2.16131 0.266682 2.03223C0.213118 1.90314 0.185547 1.76476 0.185547 1.62501C0.185547 1.48525 0.213118 1.34687 0.266682 1.21779C0.320246 1.0887 0.398749 0.971454 0.497696 0.872757V0.872757Z" fill="white"/>
</svg>
