<?xml version="1.0" encoding="UTF-8"?>
<svg width="18" height="18" viewBox="0 0 18 18" fill="none" xmlns="http://www.w3.org/2000/svg">
<path d="M0.983796 0.99598C1.29022 0.688897 1.70578 0.516388 2.13906 0.516388C2.57235 0.516388 2.9879 0.688897 3.29433 0.99598L9.07231 6.78804L14.8503 0.99598C15.1585 0.6976 15.5712 0.532496 15.9997 0.536228C16.4281 0.53996 16.8379 0.71223 17.1409 1.01593C17.4439 1.31964 17.6157 1.73047 17.6195 2.15996C17.6232 2.58944 17.4585 3.00321 17.1608 3.31215L11.3828 9.10421L17.1608 14.8963C17.4585 15.2052 17.6232 15.619 17.6195 16.0485C17.6157 16.4779 17.4439 16.8888 17.1409 17.1925C16.8379 17.4962 16.4281 17.6685 15.9997 17.6722C15.5712 17.6759 15.1585 17.5108 14.8503 17.2124L9.07231 11.4204L3.29433 17.2124C2.98615 17.5108 2.57339 17.6759 2.14495 17.6722C1.7165 17.6685 1.30667 17.4962 1.0037 17.1925C0.700737 16.8888 0.528886 16.4779 0.525163 16.0485C0.52144 15.619 0.686142 15.2052 0.983796 14.8963L6.76177 9.10421L0.983796 3.31215C0.677461 3.00497 0.505371 2.58841 0.505371 2.15406C0.505371 1.71972 0.677461 1.30315 0.983796 0.99598V0.99598Z" fill="#F7A81B"/>
</svg>
