<?xml version="1.0" encoding="UTF-8"?>
<svg width="95px" height="45px" viewBox="0 0 95 45" version="1.1" xmlns="http://www.w3.org/2000/svg" xmlns:xlink="http://www.w3.org/1999/xlink">
    <title>Group</title>
    <g id="Symbols" stroke="none" stroke-width="1" fill="none" fill-rule="evenodd">
        <g id="logo-long" transform="translate(-6.000000, -9.000000)">
            <g id="Group-13" transform="translate(6.000000, 0.000000)">
                <g id="Group-23-Copy">
                    <g id="noun_container_2139468" transform="translate(0.000000, 9.000000)">
                        <g id="Group">
                            <g id="Group-5">
                                <g id="Group-6" transform="translate(19.000000, 0.000000)" fill-rule="nonzero">
                                    <path d="M39.5357143,0 L1.46428571,0 C0.655511905,0 0,0.858027778 0,1.91666667 L0,21.0833333 C0,22.1419722 0.655511905,23 1.46428571,23 L39.5357143,23 C40.3444881,23 41,22.1419722 41,21.0833333 L41,1.91666667 C41,0.858027778 40.3444881,0 39.5357143,0 Z" id="Shape-Copy" fill="#5BAE00"></path>
                                    <path d="M9.71110606,16.178 C9.65043909,16.178 9.6027729,16.1606668 9.56810606,16.126 C9.53343922,16.0913332 9.51610606,16.043667 9.51610606,15.983 L9.51610606,13.11 L9.50310606,13.032 L6.85110606,7.338 L6.82510606,7.234 C6.82510606,7.1473329 6.88143883,7.104 6.99410606,7.104 L9.23010606,7.104 C9.34277329,7.104 9.42077251,7.15599948 9.46410606,7.26 L10.6991061,10.367 C10.7251062,10.427667 10.7511059,10.427667 10.7771061,10.367 L12.0121061,7.26 C12.0554396,7.15599948 12.1334388,7.104 12.2461061,7.104 L14.4951061,7.104 C14.6077733,7.104 14.6641061,7.1473329 14.6641061,7.234 L14.6381061,7.338 L11.9601061,13.032 C11.9514394,13.0493334 11.9471061,13.0753332 11.9471061,13.11 L11.9471061,15.983 C11.9471061,16.043667 11.9297729,16.0913332 11.8951061,16.126 C11.8604392,16.1606668 11.812773,16.178 11.7521061,16.178 L9.71110606,16.178 Z M20.5747727,16.308 C19.8467691,16.308 19.2097755,16.1888345 18.6637727,15.9505 C18.11777,15.7121655 17.6952742,15.3720022 17.3962727,14.93 C17.0972712,14.4879978 16.9477727,13.9766696 16.9477727,13.396 L16.9477727,13.214 C16.9477727,13.153333 16.9651059,13.1056668 16.9997727,13.071 C17.0344396,13.0363332 17.0821058,13.019 17.1427727,13.019 L19.1577727,13.019 C19.2184397,13.019 19.2661059,13.0363332 19.3007727,13.071 C19.3354396,13.1056668 19.3527727,13.153333 19.3527727,13.214 L19.3527727,13.292 C19.3527727,13.5346679 19.4806048,13.7491657 19.7362727,13.9355 C19.9919407,14.1218343 20.3321039,14.215 20.7567727,14.215 C21.077441,14.215 21.3071054,14.147834 21.4457727,14.0135 C21.5844401,13.879166 21.6537727,13.7296675 21.6537727,13.565 C21.6537727,13.3743324 21.5671069,13.2313338 21.3937727,13.136 C21.2204385,13.0406662 20.9041084,12.9236674 20.4447727,12.785 L20.0677727,12.681 C19.2097684,12.4209987 18.4904423,12.0743355 17.9097727,11.641 C17.3291032,11.2076645 17.0387727,10.5793374 17.0387727,9.756 C17.0387727,9.20999727 17.1861046,8.72683543 17.4807727,8.3065 C17.7754409,7.88616456 18.1806035,7.56333446 18.6962727,7.338 C19.211942,7.11266554 19.7904362,7 20.4317727,7 C21.1077761,7 21.7209366,7.12566541 22.2712727,7.377 C22.8216088,7.62833459 23.2549378,7.98366437 23.5712727,8.443 C23.8876076,8.90233563 24.0457727,9.42666372 24.0457727,10.016 L24.0457727,10.133 C24.0457727,10.193667 24.0284396,10.2413332 23.9937727,10.276 C23.9591059,10.3106668 23.9114397,10.328 23.8507727,10.328 L21.8357727,10.328 C21.7751058,10.328 21.7274396,10.3106668 21.6927727,10.276 C21.6696615,10.2528888 21.6542541,10.2240001 21.6465505,10.1893334 L21.6407727,10.12 C21.6407727,9.8599987 21.5237739,9.62383439 21.2897727,9.4115 C21.0557716,9.1991656 20.7394414,9.093 20.3407727,9.093 C20.063438,9.093 19.8446069,9.14933277 19.6842727,9.262 C19.5239386,9.37466723 19.4437727,9.53066567 19.4437727,9.73 C19.4437727,9.88600078 19.5022721,10.0181661 19.6192727,10.1265 C19.7362733,10.2348339 19.9161048,10.3388328 20.1587727,10.4385 L20.3986096,10.5308266 C20.534446,10.5804388 20.6941597,10.6352243 20.8777514,10.6951834 L21.7303272,10.9635552 C21.8584012,11.0020737 22.0127163,11.0480553 22.1932727,11.1015 C22.7349421,11.2618341 23.1877709,11.5521646 23.5517727,11.9725 C23.9157745,12.3928354 24.0977727,12.901997 24.0977727,13.5 C24.0977727,14.0806696 23.9504409,14.5811646 23.6557727,15.0015 C23.3611046,15.4218354 22.949442,15.7446655 22.4207727,15.97 C21.8921034,16.1953345 21.2767762,16.308 20.5747727,16.308 Z M30.5674394,16.308 C29.8394358,16.308 29.2024421,16.1888345 28.6564394,15.9505 C28.1104367,15.7121655 27.6879409,15.3720022 27.3889394,14.93 C27.0899379,14.4879978 26.9404394,13.9766696 26.9404394,13.396 L26.9404394,13.214 C26.9404394,13.153333 26.9577726,13.1056668 26.9924394,13.071 C27.0271062,13.0363332 27.0747724,13.019 27.1354394,13.019 L29.1504394,13.019 C29.2111064,13.019 29.2587726,13.0363332 29.2934394,13.071 C29.3281062,13.1056668 29.3454394,13.153333 29.3454394,13.214 L29.3454394,13.292 C29.3454394,13.5346679 29.4732714,13.7491657 29.7289394,13.9355 C29.9846073,14.1218343 30.3247706,14.215 30.7494394,14.215 C31.0701077,14.215 31.299772,14.147834 31.4384394,14.0135 C31.5771068,13.879166 31.6464394,13.7296675 31.6464394,13.565 C31.6464394,13.3743324 31.5597736,13.2313338 31.3864394,13.136 C31.2131052,13.0406662 30.896775,12.9236674 30.4374394,12.785 L30.0604394,12.681 C29.2024351,12.4209987 28.483109,12.0743355 27.9024394,11.641 C27.3217698,11.2076645 27.0314394,10.5793374 27.0314394,9.756 C27.0314394,9.20999727 27.1787713,8.72683543 27.4734394,8.3065 C27.7681075,7.88616456 28.1732701,7.56333446 28.6889394,7.338 C29.2046086,7.11266554 29.7831029,7 30.4244394,7 C31.1004428,7 31.7136033,7.12566541 32.2639394,7.377 C32.8142755,7.62833459 33.2476045,7.98366437 33.5639394,8.443 C33.8802743,8.90233563 34.0384394,9.42666372 34.0384394,10.016 L34.0384394,10.133 C34.0384394,10.193667 34.0211062,10.2413332 33.9864394,10.276 C33.9517726,10.3106668 33.9041064,10.328 33.8434394,10.328 L31.8284394,10.328 C31.7677724,10.328 31.7201062,10.3106668 31.6854394,10.276 C31.6623282,10.2528888 31.6469208,10.2240001 31.6392171,10.1893334 L31.6334394,10.12 C31.6334394,9.8599987 31.5164406,9.62383439 31.2824394,9.4115 C31.0484382,9.1991656 30.7321081,9.093 30.3334394,9.093 C30.0561047,9.093 29.8372735,9.14933277 29.6769394,9.262 C29.5166053,9.37466723 29.4364394,9.53066567 29.4364394,9.73 C29.4364394,9.88600078 29.4949388,10.0181661 29.6119394,10.1265 C29.72894,10.2348339 29.9087715,10.3388328 30.1514394,10.4385 L30.3912762,10.5308266 C30.5271127,10.5804388 30.6868263,10.6352243 30.8704181,10.6951834 L31.7229938,10.9635552 C31.8510679,11.0020737 32.0053829,11.0480553 32.1859394,11.1015 C32.7276088,11.2618341 33.1804376,11.5521646 33.5444394,11.9725 C33.9084412,12.3928354 34.0904394,12.901997 34.0904394,13.5 C34.0904394,14.0806696 33.9431075,14.5811646 33.6484394,15.0015 C33.3537713,15.4218354 32.9421087,15.7446655 32.4134394,15.97 C31.8847701,16.1953345 31.2694429,16.308 30.5674394,16.308 Z" id="YSS" fill="#FFFFFF"></path>
                                </g>
                                <g id="logo" transform="translate(0.000000, 8.000000)" fill="#FFFFFF">
                                    <g id="Group-4">
                                        <g id="noun_Dump-Truck_1004233" transform="translate(18.242424, 0.000000)" fill-rule="nonzero">
                                            <path d="M75.4419192,12.6578283 L67.7083333,1.29419192 C67.3926768,0.820707071 66.9191919,0.662878788 66.4457071,0.662878788 L47.1906566,0.662878788 C46.2436869,0.662878788 45.6123737,1.29419192 45.6123737,2.24116162 L45.6123737,18.655303 L43.4027778,18.655303 L0,18.4027778 C0,16.8876263 0,19.9179293 0,19.9179293 L0,30.4924242 C0,31.4393939 0.631313131,32.0707071 1.57828283,32.0707071 L4.89267677,32.0707071 C5.5239899,34.9116162 8.04924242,36.9633838 11.0479798,36.9633838 C14.0467172,36.9633838 16.5719697,34.9116162 17.2032828,32.0707071 L18.6237374,32.0707071 C19.2550505,34.9116162 21.780303,36.9633838 24.7790404,36.9633838 C27.7777778,36.9633838 30.3030303,34.9116162 30.9343434,32.0707071 L46.875,32.0707071 L53.6616162,32.0707071 C54.2929293,34.9116162 56.8181818,36.9633838 59.8169192,36.9633838 C62.8156566,36.9633838 65.3409091,34.9116162 65.9722222,32.0707071 L74.1792929,32.0707071 C75.1262626,32.0707071 75.7575758,31.4393939 75.7575758,30.4924242 L75.7575758,13.604798 C75.7575758,13.3943603 75.6523569,13.0787037 75.4419192,12.6578283 Z M11.2058081,33.9646465 C9.46969697,33.9646465 7.89141414,32.5441919 7.89141414,30.6502525 C7.89141414,28.7563131 9.31186869,27.3358586 11.2058081,27.3358586 C11.9949495,27.3358586 14.520202,28.125 14.520202,30.6502525 C14.520202,30.6502525 14.520202,30.6502525 14.520202,30.6502525 C14.520202,32.5441919 12.9419192,33.9646465 11.2058081,33.9646465 Z M25.094697,33.9646465 C23.3585859,33.9646465 21.780303,32.5441919 21.780303,30.6502525 C21.780303,30.6502525 21.780303,30.6502525 21.780303,30.6502525 C21.780303,30.334596 21.780303,29.8611111 21.9381313,29.5454545 C22.4116162,28.2828283 23.6742424,27.3358586 25.094697,27.3358586 C27.9356061,27.4936869 28.4090909,30.0189394 28.4090909,30.6502525 C28.2512626,32.3863636 26.8308081,33.9646465 25.094697,33.9646465 Z M45.6123737,29.0719697 L31.4078283,29.0719697 C29.8295455,23.0744949 21.3068182,21.969697 18.9393939,29.0719697 L17.6767677,29.0719697 C15.3093434,22.1275253 6.94444444,23.0744949 5.20833333,29.0719697 L3.15656566,29.0719697 L3.15656566,21.6540404 L45.6123737,21.6540404 L45.6123737,29.0719697 Z M60.1325758,33.9646465 C58.3964646,33.9646465 56.8181818,32.5441919 56.8181818,30.6502525 C56.8181818,30.6502525 56.8181818,30.6502525 56.8181818,30.6502525 C56.8181818,29.5454545 57.6073232,27.4936869 60.1325758,27.3358586 C61.8686869,27.3358586 63.4469697,28.7563131 63.4469697,30.6502525 C63.4469697,32.3863636 62.0265152,33.9646465 60.1325758,33.9646465 Z M72.6010101,29.0719697 L66.4457071,29.0719697 C64.5517677,22.6010101 56.0290404,22.4431818 53.9772727,29.0719697 L48.7689394,29.0719697 L48.7689394,20.0757576 L48.7689394,3.66161616 L65.6565657,3.66161616 L72.6010101,13.9204545 L72.6010101,29.0719697 Z" id="Shape"></path>
                                            <path d="M62.7209596,6.06060606 L53.0934343,6.06060606 C52.1464646,6.06060606 51.5151515,6.69191919 51.5151515,7.63888889 L51.5151515,16.3194444 C51.5151515,16.7929293 51.6729798,17.1085859 51.9886364,17.4242424 C52.3042929,17.739899 52.6199495,17.8977273 53.0934343,17.8977273 C53.0934343,17.8977273 53.0934343,17.8977273 53.0934343,17.8977273 L67.4558081,17.8977273 C68.0871212,17.8977273 68.5606061,17.5820707 68.8762626,17.1085859 C69.1919192,16.635101 69.1919192,16.0037879 68.8762626,15.530303 L64.1414141,6.84974747 C63.8257576,6.37626263 63.1944444,6.06060606 62.7209596,6.06060606 Z M54.6717172,14.7411616 L54.6717172,9.21717172 L61.7739899,9.21717172 L64.7727273,14.7411616 L54.6717172,14.7411616 Z" id="Shape"></path>
                                        </g>
                                        <rect id="Rectangle-Copy-13" x="0" y="3.03030303" width="12.1212121" height="4.54545455" rx="2.27272727"></rect>
                                        <rect id="Rectangle-Copy-17" x="4.12121212" y="13.6363636" width="8" height="4.54545455" rx="2.27272727"></rect>
                                        <rect id="Rectangle-Copy-29" x="7.12121212" y="24.2424242" width="5" height="4.54545455" rx="2.27272727"></rect>
                                    </g>
                                </g>
                            </g>
                        </g>
                    </g>
                </g>
            </g>
        </g>
    </g>
</svg>