<?xml version="1.0" encoding="UTF-8"?>
<svg width="100px" height="100px" viewBox="0 0 100 100" version="1.1" xmlns="http://www.w3.org/2000/svg" xmlns:xlink="http://www.w3.org/1999/xlink">
    <title>noun_Magnifying Glass_39792</title>
    <g id="New" stroke="none" stroke-width="1" fill="none" fill-rule="evenodd">
        <g id="Home-2" transform="translate(-527.000000, -5236.000000)" fill="#000000" fill-rule="nonzero">
            <g id="Group-15-Copy" transform="translate(163.000000, 4980.000000)">
                <g id="Group-12">
                    <g id="noun_Magnifying-Glass_39792" transform="translate(364.000000, 256.000000)">
                        <path d="M31.0477778,54.7412165 C30.6088889,55.8234627 29.57,56.4790329 28.4711111,56.4790329 C28.1244444,56.4790329 27.7722222,56.4134759 27.43,56.2745839 C18.1144444,52.5078335 11.1755556,44.4332096 8.86888889,34.6741039 C8.51555556,33.1807373 9.43888889,31.6851486 10.9333333,31.3318074 C12.42,30.9751328 13.9222222,31.90182 14.2744444,33.3962977 C16.1688889,41.4042534 21.8655556,48.0321785 29.5122222,51.1244694 C30.9355556,51.7011489 31.6233333,53.3200738 31.0477778,54.7412165 Z M93.1955556,83.7696393 L91.4911111,85.4730105 C91.7666667,85.9985777 91.7022222,86.6519256 91.2622222,87.0941576 C90.99,87.3652748 90.6355556,87.4997222 90.2788889,87.4997222 C90.0566667,87.4997222 89.8433333,87.4263873 89.6422222,87.3219405 L83.7677778,93.1965155 L88.6188889,98.0466233 C89.92,99.3488744 91.6277778,100 93.3322222,100 C95.0366667,100 96.7455556,99.3488744 98.0466667,98.0466233 C100.651111,95.4443432 100.651111,91.2231383 98.0466667,88.6197471 L93.1955556,83.7696393 Z M67.7955556,10.6169026 C67.4388889,10.6169026 67.0844444,10.6357919 66.7366667,10.6713483 C67.0888889,10.6524589 67.4422222,10.6169026 67.7955556,10.6169026 Z M68.8544444,10.6713483 C68.5077778,10.6357919 68.1533333,10.6169026 67.7955556,10.6169026 C68.1477778,10.6169026 68.5,10.6524589 68.8544444,10.6713483 Z M67.7955556,7.60572457 C68.2844444,7.60572457 68.7711111,7.65794795 69.2588889,7.68905976 C68.7766667,7.63683637 68.29,7.60572457 67.7955556,7.60572457 Z M66.3311111,7.68905976 C66.8177778,7.65794795 67.3055556,7.60572457 67.7944444,7.60572457 C67.3,7.60572457 66.8133333,7.63572524 66.3311111,7.68905976 Z M66.3566667,37.6463921 C65.5355556,43.953199 62.9766667,49.7211049 59.1322222,54.4167648 L61.6144444,56.8979311 C63.8355556,56.307918 66.3033333,56.8757083 68.0466667,58.6190804 L91.2311111,81.8051512 L89.5855556,83.4518545 L66.2633333,60.129114 C65.72,59.5868797 64.8411111,59.5868797 64.2977778,60.129114 C63.7544444,60.6713483 63.7555556,61.5502567 64.2977778,62.0936021 L87.6211111,85.4163426 L81.8033333,91.2320274 L58.6211111,68.0470677 C56.8744444,66.3048068 56.3055556,63.8369742 56.8955556,61.6124803 L54.4155556,59.1324252 C48.6677778,63.8369742 41.3244444,66.667037 33.3333333,66.667037 C14.9533333,66.667037 0,51.7133714 0,33.3340741 C0,14.9547768 14.9533333,0 33.3333333,0 C42.6011111,0 50.9833333,3.81675148 57.0288889,9.94466544 C59.9844444,8.75241672 63.1322222,7.89684215 66.3311111,7.68905976 C66.8177778,7.65794795 67.3055556,7.60572457 67.7944444,7.60572457 C68.2833333,7.60572457 68.77,7.65794795 69.2577778,7.68905976 C82.7422222,8.56352363 95.4177778,21.0504678 95.9688889,21.6027023 C96.5566667,22.1904931 96.5566667,23.1449588 95.9688889,23.7327496 C95.3966667,24.3038734 81.8122222,37.7297273 67.7944444,37.7297273 C67.3133333,37.7297273 66.8355556,37.6786151 66.3566667,37.6463921 Z M78.7233333,13.3002956 C80.2533333,15.4758995 81.16,18.1181804 81.16,20.9726883 C81.16,28.3439632 75.1644444,34.3407631 67.7955556,34.3407631 C67.4011111,34.3407631 67.01,34.3196515 66.6244444,34.2852063 C66.6166667,34.4152092 66.6122222,34.5463233 66.6066667,34.6785484 C67.0022222,34.7041045 67.3988889,34.7174382 67.7944444,34.7174382 C78.3911111,34.7174382 89.2266667,25.7950177 92.6966667,22.6682815 C90.4455556,20.6426809 85.0911111,16.1914709 78.7233333,13.3002956 Z M57.5055556,44.534323 C39.3566667,39.4742105 24.05,24.3627636 23.2822222,23.5949688 C22.3322222,22.6460588 22.3322222,21.1060246 23.2822222,20.1582257 C23.7744444,19.6659926 30.2455556,13.279184 39.6033333,7.42127603 C37.5933333,6.93126514 35.4933333,6.66792595 33.3322222,6.66792595 C18.6288889,6.66792595 6.66666667,18.630414 6.66666667,33.3351852 C6.66666667,48.0399564 18.6288889,60.0035556 33.3322222,60.0035556 C44.0355556,60.0024445 53.2644444,53.6534145 57.5055556,44.534323 Z M59.4722222,38.5964133 C52.21,35.1230027 47.1788889,27.7139492 47.1788889,19.1415365 C47.1788889,16.4492544 47.6922222,13.8803085 48.6044444,11.5069224 C47.6111111,10.8091291 46.5633333,10.1857819 45.4788889,9.62465833 C37.7488889,13.9958666 31.51,19.2248717 28.5633333,21.8760417 C33.1144444,25.9716883 45.5088889,36.2163604 59.1422222,39.9342208 C59.2555556,39.4908776 59.3811111,39.0497567 59.4722222,38.5964133 Z M59.9988889,33.3340741 C59.9988889,26.1972488 57.1655556,19.7215494 52.5833333,14.9314429 C52.2322222,16.2770284 52.04,17.6859486 52.04,19.1426476 C52.04,25.1461144 55.2311111,30.4017867 59.9988889,33.3451854 C59.9988889,33.3407409 59.9988889,33.3374075 59.9988889,33.3340741 Z M72.8788889,20.9726883 C72.8788889,23.7816396 70.6022222,26.0561346 67.7955556,26.0561346 C67.07,26.0561346 66.3822222,25.8983533 65.7566667,25.6239028 C66.1911111,27.4483877 66.4755556,29.3284295 66.5977778,31.2518056 C66.9911111,31.2984733 67.39,31.3273628 67.7955556,31.3273628 C73.5044444,31.3273628 78.1488889,26.681704 78.1488889,20.9715771 C78.1488889,15.619236 74.0666667,11.2024712 68.8544444,10.6702371 C68.5077778,10.6346808 68.1533333,10.6157915 67.7955556,10.6157915 C67.4388889,10.6157915 67.0844444,10.6346808 66.7366667,10.6702371 C64.2222222,10.9257984 61.9822222,12.0936021 60.3255556,13.8258628 C61.44,15.3558968 62.4322222,16.9803773 63.2722222,18.6948599 C64.11,17.0370453 65.81,15.8870197 67.7944444,15.8870197 C70.6022222,15.8881308 72.8788889,18.1648481 72.8788889,20.9726883 Z" id="Shape"></path>
                    </g>
                </g>
            </g>
        </g>
    </g>
</svg>