<?xml version="1.0" encoding="UTF-8"?>
<svg width="16" height="16" viewBox="0 0 16 16" fill="none" xmlns="http://www.w3.org/2000/svg">
<path d="M8 1.5C6.71442 1.5 5.45772 1.88122 4.3888 2.59545C3.31988 3.30968 2.48676 4.32484 1.99479 5.51256C1.50282 6.70028 1.37409 8.00721 1.6249 9.26809C1.8757 10.529 2.49477 11.6872 3.40381 12.5962C4.31285 13.5052 5.47104 14.1243 6.73192 14.3751C7.99279 14.6259 9.29973 14.4972 10.4874 14.0052C11.6752 13.5132 12.6903 12.6801 13.4046 11.6112C14.1188 10.5423 14.5 9.28558 14.5 8C14.4967 6.27711 13.8108 4.62573 12.5925 3.40746C11.3743 2.18918 9.72289 1.5033 8 1.5ZM8 13.5C6.91221 13.5 5.84884 13.1774 4.94437 12.5731C4.0399 11.9687 3.33495 11.1098 2.91867 10.1048C2.50238 9.09977 2.39347 7.9939 2.60568 6.927C2.8179 5.86011 3.34173 4.8801 4.11092 4.11091C4.8801 3.34172 5.86011 2.8179 6.92701 2.60568C7.9939 2.39346 9.09977 2.50238 10.1048 2.91866C11.1098 3.33494 11.9687 4.03989 12.5731 4.94436C13.1774 5.84883 13.5 6.9122 13.5 8C13.4983 9.45818 12.9184 10.8562 11.8873 11.8873C10.8562 12.9184 9.45819 13.4983 8 13.5ZM6 8C6 8.41977 6.13208 8.82889 6.37752 9.16942C6.62296 9.50995 6.96932 9.76463 7.36755 9.89737C7.76577 10.0301 8.19567 10.0342 8.59634 9.90903C8.99701 9.78387 9.34814 9.53581 9.6 9.2C9.68056 9.09529 9.79886 9.02622 9.92965 9.00754C10.0604 8.98885 10.1933 9.02204 10.3 9.1C10.4061 9.17957 10.4762 9.29801 10.495 9.42929C10.5137 9.56056 10.4796 9.69391 10.4 9.8C10.0222 10.3037 9.49551 10.6758 8.89451 10.8635C8.2935 11.0513 7.64866 11.0452 7.05132 10.8461C6.45398 10.6469 5.93444 10.2649 5.56628 9.75413C5.19811 9.24334 5 8.62965 5 8C5 7.37035 5.19811 6.75667 5.56628 6.24587C5.93444 5.73507 6.45398 5.35306 7.05132 5.15395C7.64866 4.95484 8.2935 4.94872 8.89451 5.13646C9.49551 5.3242 10.0222 5.69628 10.4 6.2C10.4796 6.30609 10.5137 6.43944 10.495 6.57071C10.4762 6.70199 10.4061 6.82044 10.3 6.9C10.1933 6.97797 10.0604 7.01115 9.92965 6.99247C9.79886 6.97378 9.68056 6.90471 9.6 6.8C9.34814 6.46419 8.99701 6.21613 8.59634 6.09097C8.19567 5.96581 7.76577 5.96989 7.36755 6.10263C6.96932 6.23538 6.62296 6.49005 6.37752 6.83058C6.13208 7.17111 6 7.58024 6 8Z" fill="#AAAAAA"/>
</svg>
