<?xml version="1.0" encoding="UTF-8"?>
<svg width="152px" height="70px" viewBox="0 0 152 70" version="1.1" xmlns="http://www.w3.org/2000/svg" xmlns:xlink="http://www.w3.org/1999/xlink">
    <title>Group 3@1x</title>
    <g id="Symbols" stroke="none" stroke-width="1" fill="none" fill-rule="evenodd">
        <g id="pod/quality-junk-section" transform="translate(-659.000000, -273.000000)" fill="#000000" fill-rule="nonzero">
            <g id="Group-15-Copy-2">
                <g id="Group-3" transform="translate(659.000000, 273.000000)">
                    <g id="noun_Wind_2563301" transform="translate(0.000000, 13.000000)">
                        <path d="M63.2135438,0.0435293892 C53.0993768,0.0435293892 49.7463105,9.55916351 49.6088898,9.96351057 C49.1231594,11.3778371 49.898379,12.9105775 51.3403912,13.3869822 C52.7824035,13.863387 54.3451477,13.1030512 54.8308782,11.6887247 C56.072938,8.12929759 59.3845716,5.65864799 63.2135438,5.43482351 C68.7103737,5.43482351 71.4587886,8.13047057 71.4587886,13.5217647 C71.6459348,17.7706867 68.3127622,21.3763974 63.9831,21.6087059 L2.74841495,21.6087059 C1.23050729,21.6087059 0,22.8155882 0,24.3043529 C0,25.7931177 1.23050729,27 2.74841495,27 L63.9006475,27 C71.2981816,26.8089081 77.1401534,20.7775296 76.9556185,13.5217647 C77.2679147,9.86177161 75.9207256,6.2526591 73.2728347,3.65560604 C70.6249437,1.05855298 66.945182,-0.262770903 63.2135438,0.0435293892 Z" id="Path"></path>
                        <path d="M50.0792255,33 L7.74873326,33 C6.2306498,33 5,34.2287882 5,35.7445753 C5,37.2603624 6.2306498,38.4891506 7.74873326,38.4891506 L50.0792255,38.4891506 C52.8279588,38.4891506 54.3672494,41.2337259 54.3947367,43.9783012 C54.560197,45.4227305 54.1450047,46.8737055 53.2402688,48.012827 C51.7452182,49.1358186 49.8770881,49.6463229 48.0176756,49.4400061 C46.4364329,49.4443213 44.8987512,48.9228797 43.6471897,47.9579354 C42.9161196,47.1328725 41.7618252,46.8242177 40.7156396,47.1740478 C39.6694541,47.5238779 38.9341321,48.4643944 38.8481495,49.5626685 C38.762167,50.6609426 39.3421877,51.7041244 40.3212224,52.2120272 C42.5160038,53.9636553 45.2355615,54.9300054 48.0451629,54.9566025 C51.3990097,55.2398575 54.7211216,54.1275411 57.225932,51.8826781 C59.181117,49.7310625 60.1736904,46.8767751 59.9746653,43.9783012 C60.1702775,41.2001125 59.2268935,38.4618113 57.3609734,36.3917029 C55.4950534,34.3215946 52.8667846,33.0973958 50.0792255,33 L50.0792255,33 Z" id="Path"></path>
                        <path d="M10.75,16 L38.25,16 C39.7687831,16 41,14.8807119 41,13.5 C41,12.1192881 39.7687831,11 38.25,11 L10.75,11 C9.23121694,11 8,12.1192881 8,13.5 C8,14.8807119 9.23121694,16 10.75,16 Z" id="Path"></path>
                    </g>
                    <g id="noun_Water_3067002" transform="translate(69.000000, 0.000000)">
                        <path d="M41,41 C48.5,41 56,36.3568376 56,26.0192308 C56,18.3974359 48.6744186,7.4465812 44.4011628,1.66452991 C43.6162791,0.613247863 42.3953488,0 41,0 C39.6046512,0 38.3837209,0.613247863 37.5988372,1.57692308 C33.2383721,7.4465812 26,18.3974359 26,25.9316239 C26,36.3568376 33.5,41 41,41 Z M40.6511628,6.92094017 L41,6.39529915 L41.3488372,6.92094017 C44.75,11.7393162 50.4186047,20.5876068 50.4186047,26.0192308 C50.4186047,34.7799145 43.1802326,35.4807692 40.9127907,35.4807692 C38.6453488,35.4807692 31.4069767,34.7799145 31.4069767,26.0192308 C31.494186,20.6752137 37.25,11.7393162 40.6511628,6.92094017 Z" id="Shape"></path>
                        <path d="M41.548377,32 C41.548377,32 41.548377,32 41.548377,32 C42.0685373,32 42.5886977,31.6483899 42.8487778,31.2088772 C43.108858,30.681462 43.0221646,30.0661443 42.6753911,29.7145341 C40.8548299,27.5169708 40.5080563,23.1218442 40.4213629,21.3637935 C40.4213629,20.6605732 39.9012026,20.133158 39.2943488,20.0452555 C38.6874951,19.8694504 37.993948,20.2210606 37.7338678,20.8363783 C36.9536273,22.5065264 36,24.8798948 36,26.5500429 C36,27.7806784 36,32 41.548377,32 Z" id="Path"></path>
                        <path d="M3.83647799,50.5 C5.89937107,50.5 6.84486373,51.25 8.30607966,52.5833333 C9.93920335,54 12.2599581,56 16.557652,56 C20.769392,56 23.0901468,54 24.8092243,52.5833333 C26.2704403,51.3333333 27.129979,50.5 29.278826,50.5 C31.3417191,50.5 32.2872117,51.25 33.7484277,52.5833333 C35.3815514,54 37.7023061,56 42,56 C46.21174,56 48.5324948,54 50.2515723,52.5833333 C51.7127883,51.3333333 52.572327,50.5 54.721174,50.5 C56.7840671,50.5 57.7295597,51.25 59.1907757,52.5833333 C60.9098532,54 63.1446541,56 67.442348,56 C71.6540881,56 73.9748428,54 75.6939203,52.5833333 C77.1551363,51.3333333 78.1006289,50.5 80.163522,50.5 C81.7106918,50.5 83,49.25 83,47.75 C83,46.25 81.7106918,45 80.163522,45 C75.951782,45 73.6310273,47 71.9119497,48.4166667 C70.4507338,49.6666667 69.5052411,50.5 67.442348,50.5 C65.3794549,50.5 64.4339623,49.75 62.9727463,48.4166667 C61.2536688,47 59.0188679,45 54.721174,45 C50.509434,45 48.1886792,47 46.4696017,48.4166667 C45.0083857,49.6666667 44.148847,50.5 42,50.5 C39.9371069,50.5 38.9916143,49.75 37.5303983,48.4166667 C35.8972746,47 33.5765199,45 29.278826,45 C25.067086,45 22.7463312,47 21.0272537,48.4166667 C19.5660377,49.6666667 18.706499,50.5 16.557652,50.5 C14.4947589,50.5 13.5492662,49.75 12.0880503,48.4166667 C10.4549266,47 8.13417191,45 3.83647799,45 C2.28930818,45 1,46.25 1,47.75 C1,49.3333333 2.28930818,50.5 3.83647799,50.5 Z" id="Path"></path>
                        <path d="M79.7842932,59 C75.5256545,59 73.1790576,61 71.4408377,62.4166667 C69.9633508,63.6666667 69.0073298,64.5 66.921466,64.5 C64.8356021,64.5 63.8795812,63.75 62.4020942,62.4166667 C60.6638743,61 58.4041885,59 54.0586387,59 C49.8,59 47.4534031,61 45.7151832,62.4166667 C44.3246073,63.75 43.4554974,64.5 41.3696335,64.5 C39.2837696,64.5 38.3277487,63.75 36.8502618,62.4166667 C35.1989529,61 32.852356,59 28.5068063,59 C24.2481675,59 21.9015707,61 20.1633508,62.4166667 C18.7727749,63.75 17.8167539,64.5 15.7308901,64.5 C13.6450262,64.5 12.6890052,63.75 11.2115183,62.4166667 C9.56020942,61 7.21361257,59 2.86806283,59 C1.30366492,59 0,60.25 0,61.75 C0.0869109948,63.25 1.39057592,64.5 2.95497382,64.5 C5.0408377,64.5 5.99685864,65.25 7.47434555,66.5833333 C9.12565445,68 11.4722513,70 15.817801,70 C20.0764398,70 22.4230366,68 24.1612565,66.5833333 C25.6387435,65.3333333 26.5078534,64.5 28.6806283,64.5 C30.7664921,64.5 31.7225131,65.25 33.2,66.5833333 C34.8513089,68 37.1979058,70 41.5434555,70 C45.8020942,70 48.1486911,68 49.886911,66.5833333 C51.3643979,65.3333333 52.2335079,64.5 54.4062827,64.5 C56.4921466,64.5 57.4481675,65.25 58.9256545,66.5833333 C60.6638743,68 62.9235602,70 67.2691099,70 C71.5277487,70 73.8743455,68 75.6125654,66.5833333 C77.0900524,65.3333333 78.0460733,64.5 80.1319372,64.5 C81.6963351,64.5 83,63.25 83,61.75 C82.652356,60.25 81.3486911,59 79.7842932,59 Z" id="Path"></path>
                    </g>
                </g>
            </g>
        </g>
    </g>
</svg>