<?xml version="1.0" encoding="UTF-8"?>
<svg width="128px" height="100px" viewBox="0 0 128 100" version="1.1" xmlns="http://www.w3.org/2000/svg" xmlns:xlink="http://www.w3.org/1999/xlink">
    <title>noun_measure_3281273</title>
    <g id="New" stroke="none" stroke-width="1" fill="none" fill-rule="evenodd">
        <g id="Home-2" transform="translate(-829.000000, -5241.000000)" fill="#000000" fill-rule="nonzero">
            <g id="Group-15-Copy" transform="translate(163.000000, 4980.000000)">
                <g id="Group-12">
                    <g id="noun_measure_3281273" transform="translate(666.000000, 261.000000)">
                        <path d="M0,44.0366972 L0,100 L128,100 L128,44.0366972 L0,44.0366972 Z M121.28,93.7672758 L6.72,93.7672758 L6.72,50.2366177 L20.1955556,50.2366177 L20.1955556,71.9855448 L26.9511111,71.9855448 L26.9511111,50.2366177 L40.4266667,50.2366177 L40.4266667,59.5529002 L47.1466667,59.5529002 L47.1466667,50.2366177 L60.6222222,50.2366177 L60.6222222,71.9855448 L67.5555556,71.9855448 L67.5555556,50.2366177 L81.0311111,50.2366177 L81.0311111,59.5529002 L87.7511111,59.5529002 L87.7511111,50.2366177 L101.226667,50.2366177 L101.226667,71.9855448 L107.982222,71.9855448 L107.982222,50.2366177 L121.457778,50.2366177 L121.28,93.7672758 Z" id="Shape"></path>
                        <polygon id="Path" points="41.1833481 18.5639527 36.8609389 14.5510068 91.1390611 14.5510068 86.7812223 18.5639527 91.5287865 22.9357798 104 11.4515771 91.5287865 0 86.7812223 4.37182716 91.1390611 8.38477299 36.8609389 8.38477299 41.1833481 4.37182716 36.4357839 0 24 11.4515771 36.4357839 22.9357798"></polygon>
                    </g>
                </g>
            </g>
        </g>
    </g>
</svg>