<?xml version="1.0" encoding="UTF-8"?>
<svg width="13px" height="16px" viewBox="0 0 13 16" version="1.1" xmlns="http://www.w3.org/2000/svg" xmlns:xlink="http://www.w3.org/1999/xlink">
    <title>Group</title>
    <defs>
        <path d="M6.71708015,0 C2.33206107,0 0,2.81036391 0,5.87396939 C0,7.29459291 0.79389313,9.06728399 2.0653626,9.62935677 C2.25763359,9.7158295 2.36307252,9.67876976 2.40648855,9.49964766 C2.44370229,9.36376194 2.61116412,8.70903979 2.69179389,8.4002086 C2.71660305,8.30138261 2.70419847,8.21490988 2.6235687,8.12226052 C2.20181298,7.63430722 1.86688931,6.74487337 1.86688931,5.91102914 C1.86688931,3.77391724 3.56631679,1.69857159 6.45658397,1.69857159 C8.95610687,1.69857159 10.7051527,3.32302369 10.7051527,5.64543431 C10.7051527,8.27049949 9.31583969,10.0864269 7.51097328,10.0864269 C6.51240458,10.0864269 5.76812977,9.3019957 6.00381679,8.33226573 C6.28912214,7.17723705 6.84732824,5.93573563 6.84732824,5.1018914 C6.84732824,4.3545199 6.42557252,3.7368575 5.5634542,3.7368575 C4.54627863,3.7368575 3.72137405,4.74364721 3.72137405,6.09632786 C3.72137405,6.95487859 4.02528626,7.53548124 4.02528626,7.53548124 C4.02528626,7.53548124 3.02051527,11.5996998 2.83444656,12.3594246 C2.51812977,13.6441623 2.8778626,15.7256846 2.90887405,15.9048067 C2.92748092,16.0036327 3.03912214,16.0345158 3.10114504,15.9542197 C3.20038168,15.8245106 4.41603053,14.0888793 4.75715649,12.8350246 C4.88120229,12.3779544 5.38979008,10.5249672 5.38979008,10.5249672 C5.72471374,11.1302764 6.69227099,11.6367596 7.72185115,11.6367596 C10.7857824,11.6367596 13,8.94375151 13,5.60219794 C12.9875954,2.3965301 10.2461832,0 6.71708015,0" id="path-1"></path>
    </defs>
    <g id="Symbols" stroke="none" stroke-width="1" fill="none" fill-rule="evenodd">
        <g id="3.-Icons/ic_pinterest" transform="translate(-9.000000, -7.000000)">
            <g id="Group" transform="translate(9.000000, 7.000000)">
                <mask id="mask-2" fill="white">
                    <use xlink:href="#path-1"></use>
                </mask>
                <g id="Icon"></g>
                <g id="5.-Colors/Gray-85" mask="url(#mask-2)" fill="#D8D8D8">
                    <g transform="translate(-7.000000, -5.000000)" id="Gray-85">
                        <rect x="0" y="0" width="26" height="26"></rect>
                    </g>
                </g>
            </g>
        </g>
    </g>
</svg>