<?xml version="1.0" encoding="UTF-8"?>
<svg width="152px" height="123px" viewBox="0 0 152 123" version="1.1" xmlns="http://www.w3.org/2000/svg" xmlns:xlink="http://www.w3.org/1999/xlink">
    <title>icon-inspection</title>
    <g id="Symbols" stroke="none" stroke-width="1" fill="none" fill-rule="evenodd">
        <g id="pod/quality-junk-section" transform="translate(-77.000000, -255.000000)" fill="#000000" fill-rule="nonzero">
            <g id="Group-15-Copy-2">
                <g id="icon-inspection" transform="translate(77.000000, 256.000000)">
                    <g id="Group-2" transform="translate(0.000000, 0.500000)">
                        <path d="M116.974381,23.1149135 C116.967094,23.0020623 116.950373,22.8900189 116.924394,22.7799562 C116.91689,22.7528901 116.90519,22.7280224 116.896697,22.7012993 C116.885622,22.6668314 116.869,22.6364376 116.856191,22.6025748 C116.840053,22.5603622 116.825791,22.5198842 116.807071,22.4789826 C116.799184,22.4617587 116.801524,22.4431634 116.793152,22.4260606 C116.787605,22.414726 116.776893,22.4084536 116.771124,22.3972601 C116.752969,22.361683 116.735035,22.3269731 116.714641,22.2925052 C116.676118,22.2336622 116.634483,22.1769151 116.589915,22.1225055 L116.549772,22.0680507 C116.524919,22.0365275 116.506805,22.0029268 116.479854,21.972775 C116.460267,21.9509729 116.442414,21.928707 116.421859,21.9076511 L116.377479,21.867758 C116.35765,21.8486786 116.340907,21.827764 116.32021,21.8094107 C116.291968,21.78418 116.257796,21.7701428 116.228123,21.7467675 L116.203916,21.7302698 C116.154321,21.685515 116.102478,21.643315 116.048588,21.6038338 C116.019036,21.5855007 115.985549,21.5778771 115.955271,21.5611171 C115.92596,21.5449823 115.903549,21.5202558 115.87327,21.5053715 L81.5792586,4.65286873 L81.5790165,4.65262671 L80.3386753,4.04315675 L71.4928903,-0.303806684 C71.4539778,-0.323047371 71.4114947,-0.3191952 71.3720172,-0.335692981 C71.2395537,-0.386599288 71.1019403,-0.422935052 70.9616095,-0.444057985 C70.860814,-0.47036319 70.7581003,-0.488679139 70.654424,-0.5 C70.6209378,-0.5 70.5900336,-0.5 70.5565474,-0.5 C70.4448939,-0.48916702 70.33434,-0.469148172 70.2260829,-0.439862951 C70.0945237,-0.418813446 69.9654344,-0.384500011 69.8407898,-0.337447634 C69.7992952,-0.32022379 69.7549764,-0.324035625 69.7140869,-0.303847021 L62.8554662,3.06670194 L59.62788,4.65258637 L59.6270126,4.65319143 L1.12779935,33.4015014 C1.09899314,33.4156193 1.07769107,33.4391761 1.04975228,33.4545646 C1.01747641,33.4722926 0.981912449,33.4804205 0.950504001,33.4999839 C0.89448084,33.5409087 0.840685005,33.5847972 0.789346587,33.6314619 L0.757332966,33.6532439 C0.73429607,33.6717181 0.707708828,33.6824276 0.685418311,33.701991 C0.663127794,33.7215543 0.644427966,33.7432354 0.623125898,33.763787 L0.579049173,33.802934 C0.558110208,33.8243529 0.539773484,33.847002 0.519822967,33.8692881 C0.493235725,33.8989559 0.475443656,33.9324355 0.450752622,33.9634546 L0.409379001,34.0199262 C0.365141283,34.0741188 0.323758603,34.1305795 0.285399346,34.1890788 C0.265226932,34.2233652 0.247354174,34.2578734 0.229259518,34.2932085 C0.223470036,34.3045431 0.212516415,34.3108155 0.206847967,34.3222712 C0.19835538,34.3396161 0.200796243,34.3584534 0.192727277,34.3759394 C0.174249346,34.4162763 0.160108484,34.4560686 0.144212622,34.4976761 C0.130919001,34.532386 0.113954001,34.563405 0.102839001,34.5987401 C0.0944674495,34.6249591 0.0831507254,34.6494637 0.0757676219,34.6761667 C0.0500539506,34.7853536 0.0334555122,34.8964873 0.026143484,35.0084215 C0.0215845185,35.0535988 0.0106308978,35.0963156 0.00903727713,35.1413517 C0.00806900127,35.165332 0,35.1875173 0,35.2115379 L0,96.6740589 C0,97.4430862 0.437332522,98.1452051 1.12779935,98.4840953 L35.4199143,115.336154 L35.4209028,115.336759 L45.5071097,120.293193 C45.5376507,120.308339 45.5711369,120.301926 45.6021621,120.315378 C45.850074,120.429709 46.1187048,120.492283 46.3916297,120.5 L46.3945345,120.5 L46.3955229,120.5 L46.3965517,120.5 C46.5047779,120.493796 46.6123247,120.47885 46.7181404,120.455307 C46.7938133,120.449035 46.8690786,120.438558 46.9435873,120.423925 C46.9891366,120.410997 47.0301471,120.382801 47.07495,120.366687 C47.1163236,120.351782 47.1551152,120.331715 47.1955004,120.314249 C47.2245486,120.301684 47.2574297,120.30723 47.2859938,120.293193 L57.3722007,115.336759 L57.3730681,115.336154 L115.873189,86.5878847 C116.563124,86.248553 117,85.5465935 117,84.7778483 L117,23.3153273 C117,23.2908226 116.991749,23.2681735 116.990882,23.24381 C116.989409,23.200226 116.978819,23.1586185 116.974381,23.1149135 Z M48,115.5 L48,109.352342 L54,106.5 L54,112.647658 L48,115.5 Z M70.5,9.5 L65,6.99994417 L70.5,4.5 L76,6.99994417 L70.5,9.5 Z M60.0258407,9.5 L69.2613488,14.0073151 C69.2906613,14.021678 69.3226882,14.0156633 69.3523451,14.0284369 C69.6018086,14.1426884 69.8721123,14.2052289 70.1467388,14.212237 L70.1525121,14.2135043 L70.1545379,14.2133433 L70.1565636,14.2135847 L70.1623775,14.212237 C70.4369906,14.2052257 70.7072803,14.1426852 70.9567307,14.0284369 C70.9863875,14.0156633 71.0184145,14.021678 71.0477269,14.0073151 L80.2834781,9.5 L100,19.123361 L97.6206475,20.284739 L93.5691686,22.2619623 C93.5044501,22.3054095 93.4425121,22.3528068 93.3837122,22.4038808 C93.1402459,22.5429603 92.9377858,22.7430364 92.7965516,22.9841272 C92.7418984,23.0461936 92.6913837,23.1117368 92.6453302,23.1803389 C92.6259236,23.2196254 92.6297522,23.2621105 92.6130601,23.3020005 C92.4308821,23.7961528 92.4308821,24.3384154 92.6130601,24.8325678 C92.6297522,24.872478 92.6259236,24.9149429 92.6453302,24.9542294 C92.7116711,25.0764079 92.7907872,25.1913075 92.8813693,25.2970265 C92.907947,25.3308013 92.9242542,25.3691021 92.9529387,25.401147 C93.1123255,25.5757141 93.3017884,25.720653 93.5124277,25.8291554 C93.5341841,25.8408227 93.5468652,25.8617031 93.5691484,25.8726261 L100,29.0110866 L57.6178037,49.6976526 L55.9739972,50.5 L52.816072,48.9588919 L46.7388537,45.9925642 C46.7001418,45.9737758 46.6582293,45.9774571 46.6189097,45.9612637 C46.1216111,45.7806422 45.5760923,45.7799868 45.0783551,45.959413 C45.0371718,45.9763507 44.993031,45.9726694 44.9524757,45.9925642 L38.8752574,48.9588919 L35.7174537,50.5 L16,40.8761361 L22.4299806,37.7380377 C22.4516155,37.7274768 22.4639725,37.70722 22.4851212,37.6959148 C22.6970962,37.5870956 22.887681,37.4413782 23.0478108,37.2656936 C23.0752596,37.2349965 23.0908375,37.1985463 23.1161795,37.1663808 C23.2079388,37.0595752 23.2879375,36.9433348 23.3548116,36.819641 C23.3743398,36.7802338 23.3705111,36.7375073 23.3872235,36.6974765 C23.5692629,36.2036456 23.5692629,35.6617459 23.3872235,35.167915 C23.3705314,35.1278841 23.37436,35.0851577 23.3548116,35.0457504 C23.3091887,34.9782127 23.2591751,34.9137043 23.2050892,34.8526367 C23.0655229,34.6142311 22.8660066,34.4158995 22.6260721,34.2770571 C22.5640266,34.2229795 22.4985263,34.1729405 22.4299806,34.1272532 L18.3785017,32.1500299 L16,30.9890341 L60.0258407,9.5 Z M113,73.5127824 L111,74.5 L111,39.4872176 L113,38.5 L113,73.5127824 Z M19.582,97.2943144 C19.528965,97.2674854 19.4745159,97.2436424 19.4189,97.2228934 L14,94.500975 L14,91.469119 C13.9882067,91.3722392 13.9691514,91.2764148 13.943,91.1824804 C13.9300686,91.0352584 13.9011668,90.8899375 13.85682,90.7491608 C13.7384445,90.5209898 13.6039317,90.3018389 13.45434,90.0934328 C13.3501213,89.9918694 13.2353095,89.902151 13.11194,89.8258683 C13.039875,89.7600614 12.9629497,89.6999616 12.88184,89.6460971 L10,88.2075418 L10,52.796074 L11.11816,53.3542381 C11.13416,53.3621805 11.15162,53.3584632 11.16772,53.3660197 C11.4234316,53.489387 11.7022956,53.5553969 11.98536,53.5595632 L11.99804,53.5625289 L11.99914,53.562407 L12,53.5625289 L12.00428,53.5616554 C12.2386367,53.5561361 12.4701924,53.5086254 12.68828,53.421312 C12.7489121,53.3981327 12.8083543,53.3718615 12.86638,53.3425987 C13.0357952,53.2593969 13.1926176,53.1520034 13.33208,53.0236826 C13.36454,52.993802 13.40166,52.9722294 13.43208,52.9402566 C13.578849,52.7895975 13.7012462,52.6163209 13.79474,52.4268423 C13.80316,52.4093527 13.80074,52.3904005 13.80874,52.372789 C13.8838613,52.114321 13.9440242,51.8516091 13.98892,51.5860007 C13.9894,51.5666626 13.99978,51.5506559 13.99978,51.5311553 L13.99978,50.5 L21.99978,54.4935607 L21.99978,75.2280428 L18.88162,73.6713463 C18.2403568,73.3513628 17.4797275,73.4031517 16.8862537,73.8072048 C16.2927799,74.2112578 15.9566244,74.9061898 16.0044137,75.6302266 C16.052203,76.3542633 16.4766768,76.9974065 17.11794,77.3173901 L22,79.75462 L22,98.5 L19.582,97.2943144 Z M17.6499963,35.8409462 L18,36.0001396 L12.5,38.5 L7,36 L12.5,33.5 L17.6499963,35.8409462 Z M46.5,50.5 L51.6501659,52.8410246 L52,53.0000558 L46.5,55.5 L41,53.0000558 L41.3498341,52.8410246 L46.5,50.5 Z M92.23522,39.0037795 L92.2,39.021297 L84.23148,42.9765268 L84.20598,42.9890941 L76.22428,46.9508702 L76.21732,46.954204 L59,55.5 L59,53.3482005 L103,31.5 L103,33.6561233 L99.99024,35.164949 L99.93286,35.1899826 L99.90856,35.2005901 C99.8778,35.2140262 99.84644,35.2262298 99.8164,35.2409994 L92.23522,39.0037795 Z M58,103.5 C58,103.480388 57.9895,103.464112 57.98902,103.444622 C57.9440846,103.178792 57.883983,102.915847 57.80902,102.657119 C57.80102,102.63948 57.8034,102.620498 57.79502,102.602961 C57.7423154,102.520982 57.6835098,102.443234 57.61912,102.370401 C57.543653,102.244054 57.4546932,102.126576 57.35386,102.020105 C57.1488494,101.868057 56.9332332,101.731387 56.70872,101.611177 C56.5678964,101.564982 56.422406,101.53507 56.275,101.522006 C56.184851,101.49621 56.0929264,101.477331 56,101.465529 C55.98132,101.465529 55.96582,101.475844 55.94726,101.476332 C55.68532,101.521731 55.4262738,101.582976 55.1715,101.65974 C55.15418,101.667877 55.13538,101.665456 55.11816,101.674144 L54,102.233176 L54,66.7666485 L56.88184,65.3258564 C57.566402,64.9840006 58.0001384,64.2757473 58,63.5 L58,103.5 Z M34,55.5 L14,45.6367939 L14,43.5 L32.57666,52.6613432 L34,53.3632864 L34,55.5 Z M4,39.5 L10,42.3522262 L10,48.5 L4,45.6478899 L4,39.5 Z M38,61.6481167 L38,55.5 L44,58.3522315 L44,64.5 L38,61.6481167 Z M48,58.3522315 L54,55.5 L54,61.6481167 L48,64.5 L48,58.3522315 Z M99.350123,23.8409812 L104.5,21.5 L109.649877,23.8408881 L110,24.0000558 L104.5,26.5 L99,24.0001489 L99.350123,23.8409812 Z M4,49.5 L6,50.4871906 L6,85.5 L4,84.5128094 L4,49.5 Z M26,81.7647244 L29.11816,83.3216645 C30.108941,83.8130318 31.3043146,83.3971476 31.7904904,82.3919301 C32.276666,81.3867127 31.870213,80.1714234 30.88184,79.6750773 L26,77.2375586 L26,56.5 L34,60.4941337 L34,63.5234384 C33.9998616,64.2980925 34.433598,65.0053477 35.11816,65.3467218 L38,66.7854836 L38,102.202032 L36.88184,101.643788 C36.86462,101.635235 36.84584,101.63747 36.8285,101.629404 C36.5737306,101.552888 36.3147324,101.491732 36.05286,101.446255 C36.0343,101.445768 36.01868,101.435467 36,101.435467 C35.9063612,101.447353 35.813734,101.466368 35.7229,101.492352 C35.5762166,101.505471 35.4314372,101.535209 35.29126,101.581011 C35.0669624,101.701124 34.8514776,101.8375 34.64648,101.989079 C34.5454518,102.095669 34.4563308,102.213275 34.38074,102.339755 C34.316434,102.412272 34.2577078,102.489701 34.20508,102.571358 C34.19666,102.58885 34.19898,102.607825 34.19108,102.625439 C34.116117,102.883802 34.0560154,103.146377 34.01108,103.411832 C34.0105,103.431234 34,103.447487 34,103.467072 L34,104.5 L26,100.510437 L26,81.7647244 Z M42,68.5 L44,69.4871906 L44,104.5 L42,103.512809 L42,68.5 Z M48,69.4871906 L50,68.5 L50,103.512809 L48,104.5 L48,69.4871906 Z M63,58.4963024 L67,56.5 L67,100.502722 L63,102.5 L63,58.4963024 Z M71,54.4963809 L75,52.5 L75,96.5028267 L71,98.5 L71,54.4963809 Z M79,50.4965831 L83,48.5 L83,92.5027465 L79,94.5 L79,50.4965831 Z M87,46.496537 L91,44.5 L91,88.5026706 L87,90.5 L87,46.496537 Z M95,42.4967321 L99,40.5 L99,84.5025974 L95,86.5 L95,42.4967321 Z M104.11718,77.6741852 C104.035666,77.7284091 103.958408,77.7889804 103.8861,77.8553548 C103.763129,77.9315485 103.648722,78.0211985 103.54492,78.1227045 C103.395369,78.3318856 103.260943,78.5518338 103.1427,78.7808148 C103.099898,78.918283 103.071783,79.0600426 103.05884,79.2036388 C103.031571,79.3006919 103.011896,79.3997885 103,79.5 L103,39.5 C103.000186,40.2026927 103.356738,40.8555696 103.943148,41.2269804 C104.529557,41.598391 105.262841,41.6357781 105.88282,41.3258758 L107,40.7673324 L107,76.2329056 L104.11718,77.6741852 Z M113,33.6476459 L107,36.5 L107,30.352238 L113,27.5 L113,33.6476459 Z M4,89.5 L10,92.3521715 L10,98.5 L4,95.648138 L4,89.5 Z M14,98.5 L17.79296,100.383142 C17.82348,100.398204 17.85608,100.410474 17.8877,100.42395 L17.9157,100.436 L17.9657,100.457589 L34,108.362169 L34,110.5 L14,100.629316 L14,98.5 Z M38,106.5 L44,109.352367 L44,115.5 L38,112.647769 L38,106.5 Z M59,108.348595 L103,86.5 L103,88.6510415 L59,110.5 L59,108.348595 Z M107,86.5 L107,80.3524587 L113,77.5 L113,83.6482764 L107,86.5 Z" id="Shape"></path>
                        <g id="noun_Man_348308" transform="translate(119.000000, 26.500000)">
                            <circle id="Oval" cx="22" cy="5" r="5"></circle>
                            <path d="M32.9719234,29.1832359 C32.7893778,27.9675114 31.1753547,17.2560104 30.7973561,15.460039 C29.859428,11 26.1175495,11 24.1070889,11 L2.24402074,11 C1.00430838,11 0,12.0623782 0,13.3723197 C0,14.6822612 1.00492301,15.7446394 2.24402074,15.7446394 L15.6829453,15.7446394 L15.6829453,50.6270305 C15.6829453,51.9376218 16.6878683,52.9993502 17.926966,52.9993502 C19.1660637,52.9993502 20.1709867,51.9369721 20.1709867,50.6270305 L20.1709867,34.0149448 L22.1021599,34.0149448 L22.1021599,50.6276803 C22.1021599,51.9382716 23.1070829,53 24.3461806,53 C25.5852784,53 26.5902014,51.9376218 26.5902014,50.6276803 L26.5902014,17.4470435 C27.0597801,20.1871345 28.1151029,27.1104613 28.5385842,29.9278752 C28.7143689,31.0961663 29.6676628,31.9278752 30.752488,31.9278752 C30.869268,31.9278752 30.9885066,31.9181287 31.1077452,31.8979857 C32.3320917,31.6926576 33.1661471,30.4769331 32.9719234,29.1832359 Z" id="Path"></path>
                        </g>
                    </g>
                </g>
            </g>
        </g>
    </g>
</svg>