<?xml version="1.0" encoding="UTF-8"?>
<svg width="100px" height="124px" viewBox="0 0 100 124" version="1.1" xmlns="http://www.w3.org/2000/svg" xmlns:xlink="http://www.w3.org/1999/xlink">
    <title>noun_color_2225550</title>
    <g id="New" stroke="none" stroke-width="1" fill="none" fill-rule="evenodd">
        <g id="Home-2" transform="translate(-251.000000, -5231.000000)" fill="#000000" fill-rule="nonzero">
            <g id="Group-15-Copy" transform="translate(163.000000, 4980.000000)">
                <g id="Group-12">
                    <g id="noun_color_2225550" transform="translate(88.000000, 251.000000)">
                        <path d="M85.1282051,68.8461538 C83.974359,67.0512821 81.9230769,65.8974359 79.8717949,65.8974359 C77.6923077,65.8974359 75.6410256,67.0512821 74.6153846,68.8461538 C71.1538462,74.6153846 60,93.8461538 60,102.564103 C60,113.589744 68.974359,122.564103 80,122.564103 C91.025641,122.564103 100,113.589744 100,102.564103 C99.7435897,93.8461538 88.5897436,74.4871795 85.1282051,68.8461538 Z M79.8717949,115.25641 C72.8205128,115.25641 67.0512821,109.487179 67.0512821,102.435897 C67.0512821,96.2820513 76.7948718,79.1025641 79.8717949,73.974359 C82.8205128,79.1025641 92.6923077,96.2820513 92.6923077,102.435897 C92.5641026,109.487179 86.7948718,115.25641 79.8717949,115.25641 Z" id="Shape"></path>
                        <path d="M75.2564103,57.9487179 L83.2051282,57.0512821 C85.7692308,56.7948718 87.9487179,55.1282051 88.7179487,52.5641026 C89.6153846,50.1282051 88.974359,47.4358974 87.1794872,45.6410256 L44.6153846,2.94871795 C42.8205128,1.15384615 39.8717949,1.15384615 38.0769231,2.94871795 L31.1538462,9.87179487 L24.8717949,3.58974359 C20.8974359,-0.384615385 14.6153846,-0.384615385 10.6410256,3.58974359 C6.66666667,7.56410256 6.66666667,13.8461538 10.6410256,17.8205128 L16.9230769,24.1025641 L5.51282051,35.5128205 C1.28205128,39.7435897 -0.641025641,45.7692308 0.384615385,51.9230769 C1.02564103,55.7692308 3.20512821,59.2307692 6.02564103,62.0512821 L24.2307692,80.2564103 C27.0512821,83.0769231 30.5128205,85.1282051 34.3589744,85.8974359 C40.5128205,87.0512821 46.5384615,85.1282051 50.7692308,80.7692308 L72.0512821,59.4871795 C73.0769231,58.5897436 74.1025641,58.0769231 75.2564103,57.9487179 Z M15.6410256,12.9487179 C14.4871795,11.7948718 14.4871795,9.74358974 15.6410256,8.58974359 C16.7948718,7.43589744 18.8461538,7.43589744 20,8.58974359 L26.2820513,14.8717949 L21.9230769,19.2307692 L15.6410256,12.9487179 Z M68.5897436,51.7948718 L45.2564103,75.1282051 C41.1538462,79.2307692 34.4871795,79.2307692 30.3846154,75.1282051 L11.2820513,55.8974359 C9.35897436,53.8461538 8.20512821,51.2820513 8.20512821,48.4615385 C8.20512821,45.6410256 9.35897436,43.0769231 11.2820513,41.025641 L22.6923077,29.6153846 L35.8974359,42.9487179 C35.5128205,44.8717949 36.025641,47.0512821 37.5641026,48.5897436 C40,51.025641 43.974359,51.025641 46.5384615,48.5897436 C48.974359,46.1538462 48.974359,42.1794872 46.5384615,39.6153846 C45,38.0769231 42.9487179,37.5641026 40.8974359,37.9487179 L27.5641026,24.7435897 L41.4102564,10.8974359 L79.8717949,49.3589744 L71.6666667,50.2564103 C70.5128205,50.5128205 69.3589744,51.025641 68.5897436,51.7948718 Z" id="Shape"></path>
                    </g>
                </g>
            </g>
        </g>
    </g>
</svg>