<?xml version="1.0" encoding="UTF-8"?>
<svg width="101px" height="100px" viewBox="0 0 101 100" version="1.1" xmlns="http://www.w3.org/2000/svg" xmlns:xlink="http://www.w3.org/1999/xlink">
    <title>noun_Checklist_1727211</title>
    <g id="New" stroke="none" stroke-width="1" fill="none" fill-rule="evenodd">
        <g id="Home-2" transform="translate(-1130.000000, -5253.000000)" fill="#000000" fill-rule="nonzero">
            <g id="Group-15-Copy" transform="translate(163.000000, 4980.000000)">
                <g id="Group-12">
                    <g id="noun_Checklist_1727211" transform="translate(967.000000, 273.000000)">
                        <path d="M90.1287554,24.8927039 L89.6995708,25.3218884 L41.6309013,72.9613734 L18.4549356,49.7854077 C15.4506438,46.3519313 20.1716738,41.6309013 23.6051502,44.6351931 L41.6309013,63.0901288 L82.832618,22.3175966 C74.6781116,12.4463519 62.6609442,7.29613734 50.2145923,7.29613734 C26.1802575,7.29613734 7.29613734,26.1802575 7.29613734,50.2145923 C7.29613734,73.8197425 26.1802575,93.1330472 50.2145923,93.1330472 C78.111588,93.1330472 98.7124464,66.0944206 91.416309,39.055794 C90.1287554,34.3347639 97.4248927,32.6180258 98.2832618,36.9098712 C106.866953,69.0987124 82.832618,100 50.2145923,100 C22.3175966,100 0,77.6824034 0,50.2145923 C0,22.3175966 22.3175966,0 50.2145923,0 C66.0944206,0 81.1158798,7.72532189 90.5579399,20.6008584 C91.416309,21.888412 91.416309,24.0343348 90.1287554,24.8927039 L90.1287554,24.8927039 Z" id="Path"></path>
                    </g>
                </g>
            </g>
        </g>
    </g>
</svg>