<?xml version="1.0" encoding="UTF-8"?>
<svg width="113px" height="99px" viewBox="0 0 113 99" version="1.1" xmlns="http://www.w3.org/2000/svg" xmlns:xlink="http://www.w3.org/1999/xlink">
    <title>Group@1x</title>
    <g id="Symbols" stroke="none" stroke-width="1" fill="none" fill-rule="evenodd">
        <g id="pod/quality-junk-section" transform="translate(-376.000000, -270.000000)" fill="#000000" fill-rule="nonzero">
            <g id="Group-15-Copy-2">
                <g id="Group" transform="translate(377.000000, 271.000000)">
                    <path d="M6.97775176,6.83287671 L94.0222482,6.83287671 L94.0222482,32.3972603 C96.5058548,32.7506849 98.8711944,33.5753425 101,34.7534247 L101,3.41643836 C101,1.41369863 99.4625293,0 97.5702576,0 L3.42974239,0 C1.53747073,0 0,1.53150685 0,3.41643836 L0,82.5835616 C0,84.5863014 1.53747073,86 3.42974239,86 L63.0362998,86 L63.8641686,79.5205479 C63.8641686,79.4027397 63.8641686,79.1671233 63.9824356,79.0493151 L6.97775176,79.0493151 L6.97775176,6.83287671 Z" id="Path" stroke="#FFFFFF" stroke-width="2"></path>
                    <circle id="Oval" cx="90" cy="53" r="14"></circle>
                    <path d="M110.667286,80.0705394 C110.074103,75.3775934 107.464097,71.2863071 103.667724,69 C99.9899886,72.0082988 95.4817963,73.813278 90.4990573,73.813278 C85.5163184,73.813278 81.0081261,72.0082988 77.3303902,69 C73.5340177,71.406639 70.9240116,75.3775934 70.3308284,80.0705394 L69.0258253,91.5020747 C68.788552,93.6680498 70.2121917,95.7136929 72.2290146,96.1950207 C78.04221,97.3983402 84.0926787,98 90.4990573,98 C96.905436,98 102.955905,97.3983402 108.7691,96.1950207 C110.90456,95.7136929 112.209563,93.6680498 111.972289,91.5020747 L110.667286,80.0705394 Z" id="Path"></path>
                    <path d="M83,23.5 C83,21.5689655 81.4875346,20 79.6260388,20 L44.3739612,20 C42.5124654,20 41,21.5689655 41,23.5 C41,25.4310345 42.5124654,27 44.3739612,27 L79.6260388,27 C81.4875346,27 83,25.4310345 83,23.5 Z" id="Path"></path>
                    <path d="M64.7553648,39 L44.4763948,39 C42.6223176,39 41,40.5423729 41,42.559322 C41,44.5762712 42.5064378,46 44.360515,46 L64.639485,46 C66.4935622,46 68,44.4576271 68,42.559322 C68,40.6610169 66.6094421,39 64.7553648,39 Z" id="Path"></path>
                    <path d="M61.6376812,58 L44.3623188,58 C42.5072464,58 41,59.5689655 41,61.5 C41,63.4310345 42.5072464,65 44.3623188,65 L61.6376812,65 C63.4927536,65 65,63.4310345 65,61.5 C65,59.5689655 63.4927536,58 61.6376812,58 Z" id="Path"></path>
                    <path d="M22.7142857,30.9534884 C23.4285714,31.6511628 24.2619048,32 25.2142857,32 C26.1666667,32 27,31.6511628 27.7142857,30.9534884 L35.9285714,22.9302326 C37.3571429,21.5348837 37.3571429,19.4418605 35.9285714,18.0465116 C34.5,16.6511628 32.3571429,16.6511628 30.9285714,18.0465116 L25.0952381,23.744186 L23.0714286,21.7674419 C21.6428571,20.372093 19.5,20.372093 18.0714286,21.7674419 C16.6428571,23.1627907 16.6428571,25.255814 18.0714286,26.6511628 L22.7142857,30.9534884 Z" id="Path"></path>
                    <path d="M18.0072717,44.5348837 L22.575143,48.9534884 C23.2963859,49.6511628 24.1378359,50 25.099493,50 C26.0611501,50 26.9026001,49.6511628 27.623843,48.9534884 L35.9181357,40.9302326 C37.3606214,39.5348837 37.3606214,37.4418605 35.9181357,36.0465116 C34.47565,34.6511628 32.3119215,34.6511628 30.8694358,36.0465116 L24.9792859,41.744186 L22.9357645,39.7674419 C21.4932788,38.372093 19.3295502,38.372093 17.8870645,39.7674419 C16.6849931,41.0465116 16.6849931,43.1395349 18.0072717,44.5348837 Z" id="Path"></path>
                    <path d="M18.0072717,63.5348837 L22.575143,67.9534884 C23.2963859,68.6511628 24.1378359,69 25.099493,69 C26.0611501,69 26.9026001,68.6511628 27.623843,67.9534884 L35.9181357,59.9302326 C37.3606214,58.5348837 37.3606214,56.4418605 35.9181357,55.0465116 C34.47565,53.6511628 32.3119215,53.6511628 30.8694358,55.0465116 L24.9792859,60.744186 L22.9357645,58.7674419 C21.4932788,57.372093 19.3295502,57.372093 17.8870645,58.7674419 C16.6849931,60.0465116 16.6849931,62.1395349 18.0072717,63.5348837 Z" id="Path"></path>
                </g>
            </g>
        </g>
    </g>
</svg>