<?xml version="1.0" encoding="UTF-8"?>
<svg width="48px" height="30px" viewBox="0 0 48 30" version="1.1" xmlns="http://www.w3.org/2000/svg" xmlns:xlink="http://www.w3.org/1999/xlink">
    <title>amazon icon@1x</title>
    <g id="Symbols" stroke="none" stroke-width="1" fill="none" fill-rule="evenodd">
        <g id="footer" transform="translate(-1198.000000, -165.000000)">
            <g id="Footer-Card">
                <g id="content" transform="translate(174.000000, 45.000000)">
                    <g id="payment-icons" transform="translate(850.000000, 120.000000)">
                        <g id="amazon-icon" transform="translate(174.000000, 0.000000)">
                            <g id="card" fill="#231F20">
                                <rect x="0" y="0" width="48" height="30" rx="4"></rect>
                            </g>
                            <g id="logo" transform="translate(9.000000, 11.000000)">
                                <path d="M18.541688,6.95261667 C16.8065313,8.1881 14.2910111,8.84513333 12.1247472,8.84513333 C9.08951437,8.84513333 6.35546053,7.76298333 4.28694079,5.96016667 C4.12443127,5.81871667 4.2694581,5.62551667 4.464549,5.73515 C6.69597559,6.98788333 9.45585613,7.74305 12.3067261,7.74305 C14.230219,7.74305 16.3440348,7.3578 18.2893811,6.56161667 C18.5826134,6.44163333 18.828563,6.7483 18.541688,6.95261667" id="arrow" fill="#FF9900"></path>
                                <path d="M19.4606146,6.15758333 C19.238505,5.8835 17.9940556,6.02801667 17.4346096,6.09241667 C17.2649481,6.11158333 17.238724,5.96936667 17.3916975,5.86548333 C18.385032,5.19273333 20.0117166,5.38708333 20.2012448,5.61248333 C20.3915677,5.83941667 20.1515781,7.41376667 19.220625,8.1651 C19.0771875,8.28086667 18.9412993,8.21915 19.0048727,8.06581667 C19.2142677,7.56173333 19.6835189,6.43205 19.4606146,6.15758333" id="arrow-head" fill="#FF9900"></path>
                                <path d="M23.2771122,0.2071 C24.6491058,0.2071 25.3901333,1.34406667 25.3901333,2.78846667 C25.3901333,4.18456667 24.5712284,5.2924 23.2771122,5.2924 C21.930548,5.2924 21.1974671,4.15543333 21.1974671,2.74016667 C21.1974671,1.31455 21.9392893,0.2071 23.2771122,0.2071 L23.2771122,0.2071 Z M23.2854562,1.14166667 C22.6036314,1.14166667 22.5611167,2.03713333 22.5611167,2.59603333 C22.5611167,3.15416667 22.551978,4.34863333 23.2771122,4.34863333 C23.993505,4.34863333 24.0272784,3.38531667 24.0272784,2.79805 C24.0272784,2.41241667 24.010193,1.95011667 23.8898009,1.58403333 C23.7860968,1.26663333 23.5786885,1.14166667 23.2854562,1.14166667 L23.2854562,1.14166667 Z" id="o" fill="#FFFFFF"></path>
                                <path d="M27.1697914,5.1958 L26.2487716,5.1958 C26.1561929,5.19005 26.0830834,5.11913333 26.0830834,5.03135 L26.0818914,0.4532 C26.0894408,0.36925 26.1661262,0.3037 26.2591023,0.3037 L27.1161513,0.3037 C27.1968101,0.307916667 27.2631648,0.360816667 27.2806475,0.431733333 L27.2806475,1.1317 L27.2977329,1.1317 C27.5567945,0.5061 27.9191629,0.2071 28.5576783,0.2071 C28.9713028,0.2071 29.3773779,0.351616667 29.6360422,0.746833333 C29.8776212,1.11215 29.8776212,1.72893333 29.8776212,2.17206667 L29.8776212,5.05166667 C29.8672905,5.13293333 29.7921944,5.1958 29.7008077,5.1958 L28.7742252,5.1958 C28.6884011,5.19043333 28.6188677,5.12986667 28.6089344,5.05166667 L28.6089344,2.56728333 C28.6089344,2.06588333 28.6693291,1.3341 28.031211,1.3341 C27.8071148,1.3341 27.5993092,1.47823333 27.4960024,1.70018333 C27.3668689,1.97963333 27.3493863,2.2587 27.3493863,2.56728333 L27.3493863,5.03135 C27.3477969,5.1222 27.2683302,5.1958 27.1697914,5.1958" id="n" fill="#FFFFFF"></path>
                                <path d="M17.2765772,1.111 L17.2765772,0.457416667 C17.2769745,0.358133333 17.354852,0.291816667 17.4486227,0.291816667 L20.4866369,0.291433333 C20.5835864,0.291433333 20.6614638,0.359666667 20.6622585,0.45665 L20.6614638,1.01708333 C20.6606691,1.11138333 20.5788184,1.23481667 20.4325995,1.42916667 L18.8587604,3.59691667 C19.4436357,3.58388333 20.0610925,3.66821667 20.5919304,3.9561 C20.7119252,4.0205 20.7441092,4.11671667 20.7528506,4.21101667 L20.7528506,4.90906667 C20.7528506,5.0049 20.6439811,5.11606667 20.529549,5.05818333 C19.5946226,4.58591667 18.3533518,4.53416667 17.3198866,5.06393333 C17.2141958,5.11836667 17.1033397,5.00873333 17.1033397,4.91251667 L17.1033397,4.24858333 C17.1033397,4.14355 17.1053264,3.96146667 17.2165798,3.7997 L19.0395473,1.27621667 L17.4521988,1.27583333 C17.354852,1.27583333 17.2773719,1.20913333 17.2765772,1.111" id="z" fill="#FFFFFF"></path>
                                <path d="M14.8548277,3.01041667 C14.8548277,3.3581 14.8631717,3.64751667 14.6819875,3.95648333 C14.5353714,4.20718333 14.3017391,4.36166667 14.0422801,4.36166667 C13.687461,4.36166667 13.4800528,4.101 13.4800528,3.71536667 C13.4800528,2.95521667 14.186115,2.81721667 14.8548277,2.81721667 L14.8548277,3.01041667 L14.8548277,3.01041667 Z M15.7861782,5.1843 C15.7249887,5.2372 15.637178,5.24065 15.5684392,5.205 C15.2613002,4.95928333 15.2064681,4.84505 15.0387933,4.61083333 C14.531398,5.10993333 14.1718109,5.25866667 13.5150182,5.25866667 C12.7366413,5.25866667 12.1315019,4.79598333 12.1315019,3.86908333 C12.1315019,3.14573333 12.537577,2.65315 13.1168897,2.41126667 C13.618325,2.19966667 14.3184271,2.16095 14.8548277,2.10306667 L14.8548277,1.9873 C14.8548277,1.77493333 14.8719131,1.52423333 14.7427796,1.34061667 C14.6299368,1.17655 14.4141846,1.10908333 14.2234643,1.10908333 C13.8714266,1.10908333 13.5579302,1.2835 13.4808475,1.64421667 C13.4649541,1.72433333 13.4037647,1.80406667 13.3203246,1.80828333 L12.4243369,1.71513333 C12.3484462,1.69826667 12.2646087,1.64 12.2864621,1.52806667 C12.492281,0.47965 13.4740928,0.1634 14.3529952,0.1634 C14.8031743,0.1634 15.390831,0.279166667 15.7456501,0.6073 C16.1946373,1.01248333 16.1521226,1.55298333 16.1521226,2.14178333 L16.1521226,3.5306 C16.1521226,3.9492 16.3321148,4.13205 16.5009816,4.35706667 C16.5593897,4.43833333 16.5732964,4.53493333 16.497803,4.59396667 C16.3090694,4.74691667 15.9737197,5.02828333 15.7889595,5.1866 L15.7861782,5.1843 L15.7861782,5.1843 Z" id="a" fill="#FFFFFF"></path>
                                <path d="M6.19454034,5.1958 L5.27034193,5.1958 C5.18253116,5.19043333 5.11180575,5.12641667 5.10505107,5.04515 L5.10584574,0.468533333 C5.10584574,0.376533333 5.1853125,0.3037 5.28385128,0.3037 L6.14447628,0.3037 C6.23506839,0.3083 6.30738314,0.374233333 6.31334314,0.457416667 L6.31334314,1.05465 L6.3304285,1.05465 C6.55492209,0.476966667 6.97728792,0.2071 7.54666724,0.2071 C8.12478792,0.2071 8.486759,0.476966667 8.74621797,1.05465 C8.97031423,0.476966667 9.47890149,0.2071 10.0224541,0.2071 C10.4106492,0.2071 10.8334124,0.361583333 11.092474,0.707733333 C11.3857064,1.09375 11.3253116,1.65188333 11.3253116,2.14293333 L11.324517,5.03135 C11.324517,5.1222 11.2446529,5.1958 11.1465114,5.1958 L10.2239024,5.1958 C10.1305289,5.19005 10.0578168,5.11913333 10.0578168,5.03135 L10.0570222,2.60523333 C10.0570222,2.41241667 10.0749022,1.93133333 10.0315928,1.7481 C9.96245672,1.4399 9.75544581,1.35326667 9.48804017,1.35326667 C9.26354657,1.35326667 9.03070897,1.49778333 8.93574619,1.72893333 C8.84118075,1.96008333 8.84912742,2.34495 8.84912742,2.60523333 L8.84912742,5.03135 C8.84912742,5.1222 8.76926333,5.1958 8.67112188,5.1958 L7.74811548,5.1958 C7.6555367,5.19005 7.58202995,5.11913333 7.58202995,5.03135 L7.58083795,2.60523333 C7.58083795,2.09501667 7.66745672,1.34406667 7.01185596,1.34406667 C6.34711652,1.34406667 6.37373788,2.07546667 6.37373788,2.60523333 L6.37294321,5.03135 C6.37294321,5.1222 6.29307912,5.1958 6.19454034,5.1958" id="m" fill="#FFFFFF"></path>
                                <path d="M2.73892832,3.01041667 C2.73892832,3.3581 2.74727233,3.64751667 2.56569079,3.95648333 C2.41867729,4.20718333 2.18504501,4.36166667 1.92558605,4.36166667 C1.5711643,4.36166667 1.36335873,4.101 1.36335873,3.71536667 C1.36335873,2.95521667 2.07021555,2.81721667 2.73892832,2.81721667 L2.73892832,3.01041667 L2.73892832,3.01041667 Z M3.67027874,5.1843 C3.60908934,5.2372 3.52088123,5.24065 3.45174515,5.205 C3.14500346,4.95928333 3.0901714,4.84505 2.9220992,4.61083333 C2.41510128,5.10993333 2.0555142,5.25866667 1.3983241,5.25866667 C0.620344529,5.25866667 0.0148078255,4.79598333 0.0148078255,3.86908333 C0.0148078255,3.14573333 0.421677632,2.65315 1.00059297,2.41126667 C1.50242555,2.19966667 2.2025277,2.16095 2.73892832,2.10306667 L2.73892832,1.9873 C2.73892832,1.77493333 2.75601368,1.52423333 2.62608553,1.34061667 C2.51364006,1.17655 2.29788781,1.10908333 2.10756492,1.10908333 C1.75512985,1.10908333 1.44163348,1.2835 1.36455073,1.64421667 C1.34865738,1.72433333 1.2878653,1.80406667 1.20363054,1.80828333 L0.3084375,1.71513333 C0.232149411,1.69826667 0.148709314,1.64 0.170165339,1.52806667 C0.375984245,0.47965 1.35819339,0.1634 2.23709574,0.1634 C2.68648026,0.1634 3.27493161,0.279166667 3.62895602,0.6073 C4.07873788,1.01248333 4.0354285,1.55298333 4.0354285,2.14178333 L4.0354285,3.5306 C4.0354285,3.9492 4.21542071,4.13205 4.38428757,4.35706667 C4.44309297,4.43833333 4.45660232,4.53493333 4.38150623,4.59396667 C4.19277268,4.74691667 3.85702562,5.02828333 3.67266274,5.1866 L3.67027874,5.1843 L3.67027874,5.1843 Z" id="a" fill="#FFFFFF"></path>
                            </g>
                        </g>
                    </g>
                </g>
            </g>
        </g>
    </g>
</svg>